<svg xmlns="http://www.w3.org/2000/svg" version="1.1" xmlns:xlink="http://www.w3.org/1999/xlink" xmlns:svgjs="http://svgjs.com/svgjs" width="1440" height="560" preserveAspectRatio="none" viewBox="0 0 1440 560"><g mask="url(&quot;#SvgjsMask1000&quot;)" fill="none"><rect width="1440" height="560" x="0" y="0" fill="#0e2a47"></rect><path d="M-56.27 396.62L-56.27 396.62" stroke="#132e65" stroke-width="1.5"></path><path d="M-56.27 396.62L-111.5 509.42" stroke="#132e65" stroke-width="1.5"></path><path d="M-56.27 396.62L94.79 403.78" stroke="#132e65" stroke-width="1.5"></path><path d="M-111.5 509.42L-111.5 509.42" stroke="#132e65" stroke-width="1.5"></path><path d="M-111.5 509.42L-82.75 700.6" stroke="#132e65" stroke-width="1.5"></path><path d="M-111.5 509.42L82.22 525.31" stroke="#132e65" stroke-width="1.5"></path><path d="M-82.75 700.6L-82.75 700.6" stroke="#132e65" stroke-width="1.5"></path><path d="M-82.75 700.6L52.27 654.71" stroke="#132e65" stroke-width="1.5"></path><path d="M-82.75 700.6L82.22 525.31" stroke="#132e65" stroke-width="1.5"></path><path d="M-82.75 700.6L-56.27 396.62" stroke="#132e65" stroke-width="1.5"></path><path d="M-82.75 700.6L235.41 684.25" stroke="#132e65" stroke-width="1.5"></path><path d="M94.79 403.78L94.79 403.78" stroke="#132e65" stroke-width="1.5"></path><path d="M94.79 403.78L82.22 525.31" stroke="#132e65" stroke-width="1.5"></path><path d="M94.79 403.78L239.14 394.78" stroke="#132e65" stroke-width="1.5"></path><path d="M82.22 525.31L82.22 525.31" stroke="#132e65" stroke-width="1.5"></path><path d="M82.22 525.31L52.27 654.71" stroke="#132e65" stroke-width="1.5"></path><path d="M82.22 525.31L226.85 525.76" stroke="#132e65" stroke-width="1.5"></path><path d="M82.22 525.31L-56.27 396.62" stroke="#132e65" stroke-width="1.5"></path><path d="M52.27 654.71L52.27 654.71" stroke="#132e65" stroke-width="1.5"></path><path d="M52.27 654.71L235.41 684.25" stroke="#132e65" stroke-width="1.5"></path><path d="M52.27 654.71L226.85 525.76" stroke="#132e65" stroke-width="1.5"></path><path d="M52.27 654.71L-111.5 509.42" stroke="#132e65" stroke-width="1.5"></path><path d="M239.14 394.78L239.14 394.78" stroke="#132e65" stroke-width="1.5"></path><path d="M239.14 394.78L353.6 405.47" stroke="#132e65" stroke-width="1.5"></path><path d="M239.14 394.78L226.85 525.76" stroke="#132e65" stroke-width="1.5"></path><path d="M226.85 525.76L226.85 525.76" stroke="#132e65" stroke-width="1.5"></path><path d="M226.85 525.76L368.45 505.61" stroke="#132e65" stroke-width="1.5"></path><path d="M226.85 525.76L235.41 684.25" stroke="#132e65" stroke-width="1.5"></path><path d="M226.85 525.76L353.6 405.47" stroke="#132e65" stroke-width="1.5"></path><path d="M226.85 525.76L94.79 403.78" stroke="#132e65" stroke-width="1.5"></path><path d="M235.41 684.25L235.41 684.25" stroke="#132e65" stroke-width="1.5"></path><path d="M235.41 684.25L376.5 692.58" stroke="#132e65" stroke-width="1.5"></path><path d="M235.41 684.25L82.22 525.31" stroke="#132e65" stroke-width="1.5"></path><path d="M235.41 684.25L368.45 505.61" stroke="#132e65" stroke-width="1.5"></path><path d="M353.6 405.47L353.6 405.47" stroke="#132e65" stroke-width="1.5"></path><path d="M353.6 405.47L368.45 505.61" stroke="#132e65" stroke-width="1.5"></path><path d="M368.45 505.61L368.45 505.61" stroke="#132e65" stroke-width="1.5"></path><path d="M376.5 692.58L376.5 692.58" stroke="#132e65" stroke-width="1.5"></path><path d="M376.5 692.58L498.18 680.01" stroke="#132e65" stroke-width="1.5"></path><path d="M376.5 692.58L368.45 505.61" stroke="#132e65" stroke-width="1.5"></path><path d="M561.65 410.91L561.65 410.91" stroke="#132e65" stroke-width="1.5"></path><path d="M561.65 410.91L554.77 511.12" stroke="#132e65" stroke-width="1.5"></path><path d="M561.65 410.91L700.83 343.78" stroke="#132e65" stroke-width="1.5"></path><path d="M561.65 410.91L709.08 530.42" stroke="#132e65" stroke-width="1.5"></path><path d="M561.65 410.91L353.6 405.47" stroke="#132e65" stroke-width="1.5"></path><path d="M554.77 511.12L554.77 511.12" stroke="#132e65" stroke-width="1.5"></path><path d="M554.77 511.12L709.08 530.42" stroke="#132e65" stroke-width="1.5"></path><path d="M554.77 511.12L498.18 680.01" stroke="#132e65" stroke-width="1.5"></path><path d="M554.77 511.12L368.45 505.61" stroke="#132e65" stroke-width="1.5"></path><path d="M554.77 511.12L700.83 343.78" stroke="#132e65" stroke-width="1.5"></path><path d="M554.77 511.12L353.6 405.47" stroke="#132e65" stroke-width="1.5"></path><path d="M498.18 680.01L498.18 680.01" stroke="#132e65" stroke-width="1.5"></path><path d="M498.18 680.01L705.47 700.88" stroke="#132e65" stroke-width="1.5"></path><path d="M498.18 680.01L368.45 505.61" stroke="#132e65" stroke-width="1.5"></path><path d="M498.18 680.01L709.08 530.42" stroke="#132e65" stroke-width="1.5"></path><path d="M686.38 230.39L686.38 230.39" stroke="#132e65" stroke-width="1.5"></path><path d="M686.38 230.39L700.83 343.78" stroke="#132e65" stroke-width="1.5"></path><path d="M686.38 230.39L802.72 209.84" stroke="#132e65" stroke-width="1.5"></path><path d="M700.83 343.78L700.83 343.78" stroke="#132e65" stroke-width="1.5"></path><path d="M700.83 343.78L791.72 389.99" stroke="#132e65" stroke-width="1.5"></path><path d="M709.08 530.42L709.08 530.42" stroke="#132e65" stroke-width="1.5"></path><path d="M709.08 530.42L854.07 516.86" stroke="#132e65" stroke-width="1.5"></path><path d="M709.08 530.42L791.72 389.99" stroke="#132e65" stroke-width="1.5"></path><path d="M709.08 530.42L705.47 700.88" stroke="#132e65" stroke-width="1.5"></path><path d="M709.08 530.42L700.83 343.78" stroke="#132e65" stroke-width="1.5"></path><path d="M705.47 700.88L705.47 700.88" stroke="#132e65" stroke-width="1.5"></path><path d="M705.47 700.88L819.89 693.31" stroke="#132e65" stroke-width="1.5"></path><path d="M705.47 700.88L854.07 516.86" stroke="#132e65" stroke-width="1.5"></path><path d="M705.47 700.88L554.77 511.12" stroke="#132e65" stroke-width="1.5"></path><path d="M705.47 700.88L970.74 676.45" stroke="#132e65" stroke-width="1.5"></path><path d="M802.72 209.84L802.72 209.84" stroke="#132e65" stroke-width="1.5"></path><path d="M802.72 209.84L700.83 343.78" stroke="#132e65" stroke-width="1.5"></path><path d="M802.72 209.84L791.72 389.99" stroke="#132e65" stroke-width="1.5"></path><path d="M802.72 209.84L990.97 253.46" stroke="#132e65" stroke-width="1.5"></path><path d="M791.72 389.99L791.72 389.99" stroke="#132e65" stroke-width="1.5"></path><path d="M791.72 389.99L854.07 516.86" stroke="#132e65" stroke-width="1.5"></path><path d="M791.72 389.99L686.38 230.39" stroke="#132e65" stroke-width="1.5"></path><path d="M791.72 389.99L1004.79 370" stroke="#132e65" stroke-width="1.5"></path><path d="M854.07 516.86L854.07 516.86" stroke="#132e65" stroke-width="1.5"></path><path d="M854.07 516.86L996.08 514.64" stroke="#132e65" stroke-width="1.5"></path><path d="M819.89 693.31L819.89 693.31" stroke="#132e65" stroke-width="1.5"></path><path d="M819.89 693.31L970.74 676.45" stroke="#132e65" stroke-width="1.5"></path><path d="M819.89 693.31L854.07 516.86" stroke="#132e65" stroke-width="1.5"></path><path d="M819.89 693.31L709.08 530.42" stroke="#132e65" stroke-width="1.5"></path><path d="M819.89 693.31L996.08 514.64" stroke="#132e65" stroke-width="1.5"></path><path d="M819.89 693.31L1096.54 672.73" stroke="#132e65" stroke-width="1.5"></path><path d="M982.67 -38.4L982.67 -38.4" stroke="#132e65" stroke-width="1.5"></path><path d="M982.67 -38.4L994.82 49.63" stroke="#132e65" stroke-width="1.5"></path><path d="M982.67 -38.4L1145.08 -91.02" stroke="#132e65" stroke-width="1.5"></path><path d="M982.67 -38.4L1124.02 100.86" stroke="#132e65" stroke-width="1.5"></path><path d="M982.67 -38.4L1256.79 -87.18" stroke="#132e65" stroke-width="1.5"></path><path d="M994.82 49.63L994.82 49.63" stroke="#132e65" stroke-width="1.5"></path><path d="M994.82 49.63L1124.02 100.86" stroke="#132e65" stroke-width="1.5"></path><path d="M994.82 49.63L990.97 253.46" stroke="#132e65" stroke-width="1.5"></path><path d="M994.82 49.63L1145.08 -91.02" stroke="#132e65" stroke-width="1.5"></path><path d="M994.82 49.63L1133.58 219.07" stroke="#132e65" stroke-width="1.5"></path><path d="M994.82 49.63L802.72 209.84" stroke="#132e65" stroke-width="1.5"></path><path d="M990.97 253.46L990.97 253.46" stroke="#132e65" stroke-width="1.5"></path><path d="M990.97 253.46L1004.79 370" stroke="#132e65" stroke-width="1.5"></path><path d="M990.97 253.46L1133.58 219.07" stroke="#132e65" stroke-width="1.5"></path><path d="M1004.79 370L1004.79 370" stroke="#132e65" stroke-width="1.5"></path><path d="M1004.79 370L1120.37 391.29" stroke="#132e65" stroke-width="1.5"></path><path d="M1004.79 370L996.08 514.64" stroke="#132e65" stroke-width="1.5"></path><path d="M1004.79 370L1133.58 219.07" stroke="#132e65" stroke-width="1.5"></path><path d="M1004.79 370L854.07 516.86" stroke="#132e65" stroke-width="1.5"></path><path d="M996.08 514.64L996.08 514.64" stroke="#132e65" stroke-width="1.5"></path><path d="M996.08 514.64L1157.03 526.24" stroke="#132e65" stroke-width="1.5"></path><path d="M996.08 514.64L970.74 676.45" stroke="#132e65" stroke-width="1.5"></path><path d="M996.08 514.64L1120.37 391.29" stroke="#132e65" stroke-width="1.5"></path><path d="M970.74 676.45L970.74 676.45" stroke="#132e65" stroke-width="1.5"></path><path d="M970.74 676.45L1096.54 672.73" stroke="#132e65" stroke-width="1.5"></path><path d="M970.74 676.45L854.07 516.86" stroke="#132e65" stroke-width="1.5"></path><path d="M970.74 676.45L1157.03 526.24" stroke="#132e65" stroke-width="1.5"></path><path d="M1145.08 -91.02L1145.08 -91.02" stroke="#132e65" stroke-width="1.5"></path><path d="M1145.08 -91.02L1256.79 -87.18" stroke="#132e65" stroke-width="1.5"></path><path d="M1145.08 -91.02L1124.02 100.86" stroke="#132e65" stroke-width="1.5"></path><path d="M1145.08 -91.02L1264.21 110.7" stroke="#132e65" stroke-width="1.5"></path><path d="M1124.02 100.86L1124.02 100.86" stroke="#132e65" stroke-width="1.5"></path><path d="M1124.02 100.86L1133.58 219.07" stroke="#132e65" stroke-width="1.5"></path><path d="M1124.02 100.86L1264.21 110.7" stroke="#132e65" stroke-width="1.5"></path><path d="M1124.02 100.86L990.97 253.46" stroke="#132e65" stroke-width="1.5"></path><path d="M1133.58 219.07L1133.58 219.07" stroke="#132e65" stroke-width="1.5"></path><path d="M1133.58 219.07L1299.85 204.86" stroke="#132e65" stroke-width="1.5"></path><path d="M1133.58 219.07L1264.21 110.7" stroke="#132e65" stroke-width="1.5"></path><path d="M1133.58 219.07L1120.37 391.29" stroke="#132e65" stroke-width="1.5"></path><path d="M1120.37 391.29L1120.37 391.29" stroke="#132e65" stroke-width="1.5"></path><path d="M1120.37 391.29L1157.03 526.24" stroke="#132e65" stroke-width="1.5"></path><path d="M1120.37 391.29L1267.93 351.23" stroke="#132e65" stroke-width="1.5"></path><path d="M1157.03 526.24L1157.03 526.24" stroke="#132e65" stroke-width="1.5"></path><path d="M1157.03 526.24L1250.12 492.15" stroke="#132e65" stroke-width="1.5"></path><path d="M1157.03 526.24L1096.54 672.73" stroke="#132e65" stroke-width="1.5"></path><path d="M1157.03 526.24L1278.52 683.8" stroke="#132e65" stroke-width="1.5"></path><path d="M1157.03 526.24L1267.93 351.23" stroke="#132e65" stroke-width="1.5"></path><path d="M1096.54 672.73L1096.54 672.73" stroke="#132e65" stroke-width="1.5"></path><path d="M1256.79 -87.18L1256.79 -87.18" stroke="#132e65" stroke-width="1.5"></path><path d="M1256.79 -87.18L1442.64 -84.85" stroke="#132e65" stroke-width="1.5"></path><path d="M1256.79 -87.18L1264.21 110.7" stroke="#132e65" stroke-width="1.5"></path><path d="M1256.79 -87.18L1124.02 100.86" stroke="#132e65" stroke-width="1.5"></path><path d="M1264.21 110.7L1264.21 110.7" stroke="#132e65" stroke-width="1.5"></path><path d="M1264.21 110.7L1299.85 204.86" stroke="#132e65" stroke-width="1.5"></path><path d="M1264.21 110.7L1417.25 111.93" stroke="#132e65" stroke-width="1.5"></path><path d="M1264.21 110.7L1451.28 212.36" stroke="#132e65" stroke-width="1.5"></path><path d="M1299.85 204.86L1299.85 204.86" stroke="#132e65" stroke-width="1.5"></path><path d="M1299.85 204.86L1417.25 111.93" stroke="#132e65" stroke-width="1.5"></path><path d="M1299.85 204.86L1267.93 351.23" stroke="#132e65" stroke-width="1.5"></path><path d="M1299.85 204.86L1451.28 212.36" stroke="#132e65" stroke-width="1.5"></path><path d="M1267.93 351.23L1267.93 351.23" stroke="#132e65" stroke-width="1.5"></path><path d="M1267.93 351.23L1250.12 492.15" stroke="#132e65" stroke-width="1.5"></path><path d="M1250.12 492.15L1250.12 492.15" stroke="#132e65" stroke-width="1.5"></path><path d="M1250.12 492.15L1120.37 391.29" stroke="#132e65" stroke-width="1.5"></path><path d="M1250.12 492.15L1424.61 519.2" stroke="#132e65" stroke-width="1.5"></path><path d="M1250.12 492.15L1278.52 683.8" stroke="#132e65" stroke-width="1.5"></path><path d="M1250.12 492.15L1435.38 379.76" stroke="#132e65" stroke-width="1.5"></path><path d="M1278.52 683.8L1278.52 683.8" stroke="#132e65" stroke-width="1.5"></path><path d="M1278.52 683.8L1432.86 688.96" stroke="#132e65" stroke-width="1.5"></path><path d="M1278.52 683.8L1096.54 672.73" stroke="#132e65" stroke-width="1.5"></path><path d="M1442.64 -84.85L1442.64 -84.85" stroke="#132e65" stroke-width="1.5"></path><path d="M1442.64 -84.85L1586.36 -93.2" stroke="#132e65" stroke-width="1.5"></path><path d="M1442.64 -84.85L1417.25 111.93" stroke="#132e65" stroke-width="1.5"></path><path d="M1442.64 -84.85L1539.95 109.47" stroke="#132e65" stroke-width="1.5"></path><path d="M1442.64 -84.85L1264.21 110.7" stroke="#132e65" stroke-width="1.5"></path><path d="M1442.64 -84.85L1451.28 212.36" stroke="#132e65" stroke-width="1.5"></path><path d="M1417.25 111.93L1417.25 111.93" stroke="#132e65" stroke-width="1.5"></path><path d="M1417.25 111.93L1451.28 212.36" stroke="#132e65" stroke-width="1.5"></path><path d="M1417.25 111.93L1539.95 109.47" stroke="#132e65" stroke-width="1.5"></path><path d="M1451.28 212.36L1451.28 212.36" stroke="#132e65" stroke-width="1.5"></path><path d="M1451.28 212.36L1545.52 215.12" stroke="#132e65" stroke-width="1.5"></path><path d="M1451.28 212.36L1539.95 109.47" stroke="#132e65" stroke-width="1.5"></path><path d="M1451.28 212.36L1435.38 379.76" stroke="#132e65" stroke-width="1.5"></path><path d="M1435.38 379.76L1435.38 379.76" stroke="#132e65" stroke-width="1.5"></path><path d="M1435.38 379.76L1552.82 400.94" stroke="#132e65" stroke-width="1.5"></path><path d="M1435.38 379.76L1424.61 519.2" stroke="#132e65" stroke-width="1.5"></path><path d="M1424.61 519.2L1424.61 519.2" stroke="#132e65" stroke-width="1.5"></path><path d="M1424.61 519.2L1567.02 501.15" stroke="#132e65" stroke-width="1.5"></path><path d="M1424.61 519.2L1432.86 688.96" stroke="#132e65" stroke-width="1.5"></path><path d="M1424.61 519.2L1552.82 400.94" stroke="#132e65" stroke-width="1.5"></path><path d="M1432.86 688.96L1432.86 688.96" stroke="#132e65" stroke-width="1.5"></path><path d="M1432.86 688.96L1605.2 684.53" stroke="#132e65" stroke-width="1.5"></path><path d="M1432.86 688.96L1567.02 501.15" stroke="#132e65" stroke-width="1.5"></path><path d="M1432.86 688.96L1250.12 492.15" stroke="#132e65" stroke-width="1.5"></path><path d="M1432.86 688.96L1435.38 379.76" stroke="#132e65" stroke-width="1.5"></path><path d="M1586.36 -93.2L1586.36 -93.2" stroke="#132e65" stroke-width="1.5"></path><path d="M1539.95 109.47L1539.95 109.47" stroke="#132e65" stroke-width="1.5"></path><path d="M1539.95 109.47L1545.52 215.12" stroke="#132e65" stroke-width="1.5"></path><path d="M1545.52 215.12L1545.52 215.12" stroke="#132e65" stroke-width="1.5"></path><path d="M1552.82 400.94L1552.82 400.94" stroke="#132e65" stroke-width="1.5"></path><path d="M1552.82 400.94L1567.02 501.15" stroke="#132e65" stroke-width="1.5"></path><path d="M1552.82 400.94L1545.52 215.12" stroke="#132e65" stroke-width="1.5"></path><path d="M1552.82 400.94L1451.28 212.36" stroke="#132e65" stroke-width="1.5"></path><path d="M1552.82 400.94L1605.2 684.53" stroke="#132e65" stroke-width="1.5"></path><path d="M1567.02 501.15L1567.02 501.15" stroke="#132e65" stroke-width="1.5"></path><path d="M1567.02 501.15L1435.38 379.76" stroke="#132e65" stroke-width="1.5"></path><path d="M1567.02 501.15L1605.2 684.53" stroke="#132e65" stroke-width="1.5"></path><path d="M1605.2 684.53L1605.2 684.53" stroke="#132e65" stroke-width="1.5"></path><path d="M1605.2 684.53L1424.61 519.2" stroke="#132e65" stroke-width="1.5"></path><path d="M1605.2 684.53L1278.52 683.8" stroke="#132e65" stroke-width="1.5"></path><circle r="5" cx="-56.27" cy="396.62" fill="#132e65"></circle><circle r="5" cx="-111.5" cy="509.42" fill="#132e65"></circle><circle r="5" cx="-82.75" cy="700.6" fill="#132e65"></circle><circle r="5" cx="94.79" cy="403.78" fill="#132e65"></circle><circle r="5" cx="82.22" cy="525.31" fill="#132e65"></circle><circle r="5" cx="52.27" cy="654.71" fill="#132e65"></circle><circle r="5" cx="239.14" cy="394.78" fill="#132e65"></circle><circle r="5" cx="226.85" cy="525.76" fill="#132e65"></circle><circle r="5" cx="235.41" cy="684.25" fill="#132e65"></circle><circle r="5" cx="353.6" cy="405.47" fill="#132e65"></circle><circle r="5" cx="368.45" cy="505.61" fill="#132e65"></circle><circle r="5" cx="376.5" cy="692.58" fill="#132e65"></circle><circle r="5" cx="561.65" cy="410.91" fill="#132e65"></circle><circle r="5" cx="554.77" cy="511.12" fill="#132e65"></circle><circle r="5" cx="498.18" cy="680.01" fill="#132e65"></circle><circle r="5" cx="686.38" cy="230.39" fill="#132e65"></circle><circle r="5" cx="700.83" cy="343.78" fill="#132e65"></circle><circle r="5" cx="709.08" cy="530.42" fill="#132e65"></circle><circle r="5" cx="705.47" cy="700.88" fill="#132e65"></circle><circle r="5" cx="802.72" cy="209.84" fill="#132e65"></circle><circle r="5" cx="791.72" cy="389.99" fill="#132e65"></circle><circle r="5" cx="854.07" cy="516.86" fill="#132e65"></circle><circle r="5" cx="819.89" cy="693.31" fill="#132e65"></circle><circle r="5" cx="982.67" cy="-38.4" fill="#132e65"></circle><circle r="5" cx="994.82" cy="49.63" fill="#132e65"></circle><circle r="5" cx="990.97" cy="253.46" fill="#132e65"></circle><circle r="5" cx="1004.79" cy="370" fill="#132e65"></circle><circle r="5" cx="996.08" cy="514.64" fill="#132e65"></circle><circle r="5" cx="970.74" cy="676.45" fill="#132e65"></circle><circle r="5" cx="1145.08" cy="-91.02" fill="#132e65"></circle><circle r="5" cx="1124.02" cy="100.86" fill="#132e65"></circle><circle r="5" cx="1133.58" cy="219.07" fill="#132e65"></circle><circle r="5" cx="1120.37" cy="391.29" fill="#132e65"></circle><circle r="5" cx="1157.03" cy="526.24" fill="#132e65"></circle><circle r="5" cx="1096.54" cy="672.73" fill="#132e65"></circle><circle r="5" cx="1256.79" cy="-87.18" fill="#132e65"></circle><circle r="5" cx="1264.21" cy="110.7" fill="#132e65"></circle><circle r="5" cx="1299.85" cy="204.86" fill="#132e65"></circle><circle r="5" cx="1267.93" cy="351.23" fill="#132e65"></circle><circle r="5" cx="1250.12" cy="492.15" fill="#132e65"></circle><circle r="5" cx="1278.52" cy="683.8" fill="#132e65"></circle><circle r="5" cx="1442.64" cy="-84.85" fill="#132e65"></circle><circle r="5" cx="1417.25" cy="111.93" fill="#132e65"></circle><circle r="5" cx="1451.28" cy="212.36" fill="#132e65"></circle><circle r="5" cx="1435.38" cy="379.76" fill="#132e65"></circle><circle r="5" cx="1424.61" cy="519.2" fill="#132e65"></circle><circle r="5" cx="1432.86" cy="688.96" fill="#132e65"></circle><circle r="5" cx="1586.36" cy="-93.2" fill="#132e65"></circle><circle r="5" cx="1539.95" cy="109.47" fill="#132e65"></circle><circle r="5" cx="1545.52" cy="215.12" fill="#132e65"></circle><circle r="5" cx="1552.82" cy="400.94" fill="#132e65"></circle><circle r="5" cx="1567.02" cy="501.15" fill="#132e65"></circle><circle r="5" cx="1605.2" cy="684.53" fill="#132e65"></circle><path d="M-73.08 639.43L-73.08 639.43" stroke="hsl(228.5, 77.2%, 51.5%)" stroke-width="1.5"></path><path d="M-73.08 639.43L-108.83 552.05" stroke="hsl(228.5, 77.2%, 51.5%)" stroke-width="1.5"></path><path d="M-73.08 639.43L69.56 547.82" stroke="hsl(228.5, 77.2%, 51.5%)" stroke-width="1.5"></path><path d="M-73.08 639.43L195.6 518.89" stroke="hsl(228.5, 77.2%, 51.5%)" stroke-width="1.5"></path><path d="M-73.08 639.43L221.91 659.01" stroke="hsl(228.5, 77.2%, 51.5%)" stroke-width="1.5"></path><path d="M-73.08 639.43L365.1 656.01" stroke="hsl(228.5, 77.2%, 51.5%)" stroke-width="1.5"></path><path d="M395.7 537.11L395.7 537.11" stroke="hsl(228.5, 77.2%, 51.5%)" stroke-width="1.5"></path><path d="M395.7 537.11L506.52 510.16" stroke="hsl(228.5, 77.2%, 51.5%)" stroke-width="1.5"></path><path d="M395.7 537.11L365.1 656.01" stroke="hsl(228.5, 77.2%, 51.5%)" stroke-width="1.5"></path><path d="M395.7 537.11L195.6 518.89" stroke="hsl(228.5, 77.2%, 51.5%)" stroke-width="1.5"></path><path d="M542.74 683.41L542.74 683.41" stroke="hsl(228.5, 77.2%, 51.5%)" stroke-width="1.5"></path><path d="M542.74 683.41L506.52 510.16" stroke="hsl(228.5, 77.2%, 51.5%)" stroke-width="1.5"></path><path d="M542.74 683.41L365.1 656.01" stroke="hsl(228.5, 77.2%, 51.5%)" stroke-width="1.5"></path><path d="M542.74 683.41L395.7 537.11" stroke="hsl(228.5, 77.2%, 51.5%)" stroke-width="1.5"></path><path d="M542.74 683.41L697.39 532.74" stroke="hsl(228.5, 77.2%, 51.5%)" stroke-width="1.5"></path><path d="M964.56 400.63L964.56 400.63" stroke="hsl(228.5, 77.2%, 51.5%)" stroke-width="1.5"></path><path d="M964.56 400.63L1003.09 509.34" stroke="hsl(228.5, 77.2%, 51.5%)" stroke-width="1.5"></path><path d="M964.56 400.63L843.47 407.21" stroke="hsl(228.5, 77.2%, 51.5%)" stroke-width="1.5"></path><path d="M964.56 400.63L854.37 496.48" stroke="hsl(228.5, 77.2%, 51.5%)" stroke-width="1.5"></path><path d="M964.56 400.63L1091.8 489.86" stroke="hsl(228.5, 77.2%, 51.5%)" stroke-width="1.5"></path><path d="M1162.32 363.16L1162.32 363.16" stroke="hsl(228.5, 77.2%, 51.5%)" stroke-width="1.5"></path><path d="M1162.32 363.16L1091.8 489.86" stroke="hsl(228.5, 77.2%, 51.5%)" stroke-width="1.5"></path><path d="M1162.32 363.16L964.56 400.63" stroke="hsl(228.5, 77.2%, 51.5%)" stroke-width="1.5"></path><path d="M1162.32 363.16L1288.35 193.95" stroke="hsl(228.5, 77.2%, 51.5%)" stroke-width="1.5"></path><path d="M1162.32 363.16L1003.09 509.34" stroke="hsl(228.5, 77.2%, 51.5%)" stroke-width="1.5"></path><path d="M1121.13 658.15L1121.13 658.15" stroke="hsl(228.5, 77.2%, 51.5%)" stroke-width="1.5"></path><path d="M1121.13 658.15L1091.8 489.86" stroke="hsl(228.5, 77.2%, 51.5%)" stroke-width="1.5"></path><path d="M1121.13 658.15L951.67 704.22" stroke="hsl(228.5, 77.2%, 51.5%)" stroke-width="1.5"></path><path d="M1121.13 658.15L1304.62 705.9" stroke="hsl(228.5, 77.2%, 51.5%)" stroke-width="1.5"></path><path d="M1239.85 -53.01L1239.85 -53.01" stroke="hsl(228.5, 77.2%, 51.5%)" stroke-width="1.5"></path><path d="M1239.85 -53.01L1252.39 81.7" stroke="hsl(228.5, 77.2%, 51.5%)" stroke-width="1.5"></path><path d="M1239.85 -53.01L1399.2 -63.24" stroke="hsl(228.5, 77.2%, 51.5%)" stroke-width="1.5"></path><path d="M1239.85 -53.01L1445.95 44.63" stroke="hsl(228.5, 77.2%, 51.5%)" stroke-width="1.5"></path><path d="M1239.85 -53.01L1288.35 193.95" stroke="hsl(228.5, 77.2%, 51.5%)" stroke-width="1.5"></path><path d="M1239.85 -53.01L1544.49 60.01" stroke="hsl(228.5, 77.2%, 51.5%)" stroke-width="1.5"></path><path d="M1239.85 -53.01L1586.48 -78.44" stroke="hsl(228.5, 77.2%, 51.5%)" stroke-width="1.5"></path><path d="M1252.39 81.7L1252.39 81.7" stroke="hsl(228.5, 77.2%, 51.5%)" stroke-width="1.5"></path><path d="M1252.39 81.7L1288.35 193.95" stroke="hsl(228.5, 77.2%, 51.5%)" stroke-width="1.5"></path><path d="M1252.39 81.7L1445.95 44.63" stroke="hsl(228.5, 77.2%, 51.5%)" stroke-width="1.5"></path><path d="M1252.39 81.7L1399.2 -63.24" stroke="hsl(228.5, 77.2%, 51.5%)" stroke-width="1.5"></path><path d="M1252.39 81.7L1423.24 243.87" stroke="hsl(228.5, 77.2%, 51.5%)" stroke-width="1.5"></path><path d="M1252.39 81.7L1544.49 60.01" stroke="hsl(228.5, 77.2%, 51.5%)" stroke-width="1.5"></path><path d="M1288.35 193.95L1288.35 193.95" stroke="hsl(228.5, 77.2%, 51.5%)" stroke-width="1.5"></path><path d="M1288.35 193.95L1423.24 243.87" stroke="hsl(228.5, 77.2%, 51.5%)" stroke-width="1.5"></path><path d="M1288.35 193.95L1401.43 341.23" stroke="hsl(228.5, 77.2%, 51.5%)" stroke-width="1.5"></path><path d="M1399.2 -63.24L1399.2 -63.24" stroke="hsl(228.5, 77.2%, 51.5%)" stroke-width="1.5"></path><path d="M1399.2 -63.24L1445.95 44.63" stroke="hsl(228.5, 77.2%, 51.5%)" stroke-width="1.5"></path><path d="M1399.2 -63.24L1586.48 -78.44" stroke="hsl(228.5, 77.2%, 51.5%)" stroke-width="1.5"></path><path d="M1399.2 -63.24L1544.49 60.01" stroke="hsl(228.5, 77.2%, 51.5%)" stroke-width="1.5"></path><path d="M1399.2 -63.24L1288.35 193.95" stroke="hsl(228.5, 77.2%, 51.5%)" stroke-width="1.5"></path><path d="M-108.83 552.05L-108.83 552.05" stroke="hsl(228.5, 77.2%, 51.5%)" stroke-width="1.5"></path><path d="M-108.83 552.05L69.56 547.82" stroke="hsl(228.5, 77.2%, 51.5%)" stroke-width="1.5"></path><path d="M-108.83 552.05L195.6 518.89" stroke="hsl(228.5, 77.2%, 51.5%)" stroke-width="1.5"></path><path d="M-108.83 552.05L221.91 659.01" stroke="hsl(228.5, 77.2%, 51.5%)" stroke-width="1.5"></path><path d="M-108.83 552.05L365.1 656.01" stroke="hsl(228.5, 77.2%, 51.5%)" stroke-width="1.5"></path><path d="M69.56 547.82L69.56 547.82" stroke="hsl(228.5, 77.2%, 51.5%)" stroke-width="1.5"></path><path d="M69.56 547.82L195.6 518.89" stroke="hsl(228.5, 77.2%, 51.5%)" stroke-width="1.5"></path><path d="M195.6 518.89L195.6 518.89" stroke="hsl(228.5, 77.2%, 51.5%)" stroke-width="1.5"></path><path d="M195.6 518.89L221.91 659.01" stroke="hsl(228.5, 77.2%, 51.5%)" stroke-width="1.5"></path><path d="M221.91 659.01L221.91 659.01" stroke="hsl(228.5, 77.2%, 51.5%)" stroke-width="1.5"></path><path d="M221.91 659.01L365.1 656.01" stroke="hsl(228.5, 77.2%, 51.5%)" stroke-width="1.5"></path><path d="M221.91 659.01L69.56 547.82" stroke="hsl(228.5, 77.2%, 51.5%)" stroke-width="1.5"></path><path d="M221.91 659.01L395.7 537.11" stroke="hsl(228.5, 77.2%, 51.5%)" stroke-width="1.5"></path><path d="M365.1 656.01L365.1 656.01" stroke="hsl(228.5, 77.2%, 51.5%)" stroke-width="1.5"></path><path d="M365.1 656.01L506.52 510.16" stroke="hsl(228.5, 77.2%, 51.5%)" stroke-width="1.5"></path><path d="M506.52 510.16L506.52 510.16" stroke="hsl(228.5, 77.2%, 51.5%)" stroke-width="1.5"></path><path d="M506.52 510.16L697.39 532.74" stroke="hsl(228.5, 77.2%, 51.5%)" stroke-width="1.5"></path><path d="M506.52 510.16L678.05 406" stroke="hsl(228.5, 77.2%, 51.5%)" stroke-width="1.5"></path><path d="M506.52 510.16L195.6 518.89" stroke="hsl(228.5, 77.2%, 51.5%)" stroke-width="1.5"></path><path d="M678.05 406L678.05 406" stroke="hsl(228.5, 77.2%, 51.5%)" stroke-width="1.5"></path><path d="M678.05 406L697.39 532.74" stroke="hsl(228.5, 77.2%, 51.5%)" stroke-width="1.5"></path><path d="M678.05 406L843.47 407.21" stroke="hsl(228.5, 77.2%, 51.5%)" stroke-width="1.5"></path><path d="M678.05 406L854.37 496.48" stroke="hsl(228.5, 77.2%, 51.5%)" stroke-width="1.5"></path><path d="M697.39 532.74L697.39 532.74" stroke="hsl(228.5, 77.2%, 51.5%)" stroke-width="1.5"></path><path d="M697.39 532.74L854.37 496.48" stroke="hsl(228.5, 77.2%, 51.5%)" stroke-width="1.5"></path><path d="M697.39 532.74L826.68 671.15" stroke="hsl(228.5, 77.2%, 51.5%)" stroke-width="1.5"></path><path d="M843.47 407.21L843.47 407.21" stroke="hsl(228.5, 77.2%, 51.5%)" stroke-width="1.5"></path><path d="M843.47 407.21L854.37 496.48" stroke="hsl(228.5, 77.2%, 51.5%)" stroke-width="1.5"></path><path d="M843.47 407.21L1003.09 509.34" stroke="hsl(228.5, 77.2%, 51.5%)" stroke-width="1.5"></path><path d="M843.47 407.21L697.39 532.74" stroke="hsl(228.5, 77.2%, 51.5%)" stroke-width="1.5"></path><path d="M854.37 496.48L854.37 496.48" stroke="hsl(228.5, 77.2%, 51.5%)" stroke-width="1.5"></path><path d="M826.68 671.15L826.68 671.15" stroke="hsl(228.5, 77.2%, 51.5%)" stroke-width="1.5"></path><path d="M826.68 671.15L951.67 704.22" stroke="hsl(228.5, 77.2%, 51.5%)" stroke-width="1.5"></path><path d="M826.68 671.15L854.37 496.48" stroke="hsl(228.5, 77.2%, 51.5%)" stroke-width="1.5"></path><path d="M826.68 671.15L1003.09 509.34" stroke="hsl(228.5, 77.2%, 51.5%)" stroke-width="1.5"></path><path d="M826.68 671.15L843.47 407.21" stroke="hsl(228.5, 77.2%, 51.5%)" stroke-width="1.5"></path><path d="M826.68 671.15L542.74 683.41" stroke="hsl(228.5, 77.2%, 51.5%)" stroke-width="1.5"></path><path d="M1003.09 509.34L1003.09 509.34" stroke="hsl(228.5, 77.2%, 51.5%)" stroke-width="1.5"></path><path d="M1003.09 509.34L1091.8 489.86" stroke="hsl(228.5, 77.2%, 51.5%)" stroke-width="1.5"></path><path d="M951.67 704.22L951.67 704.22" stroke="hsl(228.5, 77.2%, 51.5%)" stroke-width="1.5"></path><path d="M951.67 704.22L1003.09 509.34" stroke="hsl(228.5, 77.2%, 51.5%)" stroke-width="1.5"></path><path d="M951.67 704.22L854.37 496.48" stroke="hsl(228.5, 77.2%, 51.5%)" stroke-width="1.5"></path><path d="M951.67 704.22L1091.8 489.86" stroke="hsl(228.5, 77.2%, 51.5%)" stroke-width="1.5"></path><path d="M1091.8 489.86L1091.8 489.86" stroke="hsl(228.5, 77.2%, 51.5%)" stroke-width="1.5"></path><path d="M1091.8 489.86L1299.1 533.3" stroke="hsl(228.5, 77.2%, 51.5%)" stroke-width="1.5"></path><path d="M1091.8 489.86L854.37 496.48" stroke="hsl(228.5, 77.2%, 51.5%)" stroke-width="1.5"></path><path d="M1299.1 533.3L1299.1 533.3" stroke="hsl(228.5, 77.2%, 51.5%)" stroke-width="1.5"></path><path d="M1299.1 533.3L1443.6 511.38" stroke="hsl(228.5, 77.2%, 51.5%)" stroke-width="1.5"></path><path d="M1299.1 533.3L1304.62 705.9" stroke="hsl(228.5, 77.2%, 51.5%)" stroke-width="1.5"></path><path d="M1299.1 533.3L1441.68 650.67" stroke="hsl(228.5, 77.2%, 51.5%)" stroke-width="1.5"></path><path d="M1304.62 705.9L1304.62 705.9" stroke="hsl(228.5, 77.2%, 51.5%)" stroke-width="1.5"></path><path d="M1304.62 705.9L1441.68 650.67" stroke="hsl(228.5, 77.2%, 51.5%)" stroke-width="1.5"></path><path d="M1304.62 705.9L1443.6 511.38" stroke="hsl(228.5, 77.2%, 51.5%)" stroke-width="1.5"></path><path d="M1304.62 705.9L1565.1 678.96" stroke="hsl(228.5, 77.2%, 51.5%)" stroke-width="1.5"></path><path d="M1445.95 44.63L1445.95 44.63" stroke="hsl(228.5, 77.2%, 51.5%)" stroke-width="1.5"></path><path d="M1445.95 44.63L1544.49 60.01" stroke="hsl(228.5, 77.2%, 51.5%)" stroke-width="1.5"></path><path d="M1445.95 44.63L1586.48 -78.44" stroke="hsl(228.5, 77.2%, 51.5%)" stroke-width="1.5"></path><path d="M1445.95 44.63L1423.24 243.87" stroke="hsl(228.5, 77.2%, 51.5%)" stroke-width="1.5"></path><path d="M1423.24 243.87L1423.24 243.87" stroke="hsl(228.5, 77.2%, 51.5%)" stroke-width="1.5"></path><path d="M1423.24 243.87L1401.43 341.23" stroke="hsl(228.5, 77.2%, 51.5%)" stroke-width="1.5"></path><path d="M1423.24 243.87L1544.49 60.01" stroke="hsl(228.5, 77.2%, 51.5%)" stroke-width="1.5"></path><path d="M1423.24 243.87L1589.76 391.5" stroke="hsl(228.5, 77.2%, 51.5%)" stroke-width="1.5"></path><path d="M1401.43 341.23L1401.43 341.23" stroke="hsl(228.5, 77.2%, 51.5%)" stroke-width="1.5"></path><path d="M1401.43 341.23L1443.6 511.38" stroke="hsl(228.5, 77.2%, 51.5%)" stroke-width="1.5"></path><path d="M1401.43 341.23L1589.76 391.5" stroke="hsl(228.5, 77.2%, 51.5%)" stroke-width="1.5"></path><path d="M1401.43 341.23L1299.1 533.3" stroke="hsl(228.5, 77.2%, 51.5%)" stroke-width="1.5"></path><path d="M1401.43 341.23L1162.32 363.16" stroke="hsl(228.5, 77.2%, 51.5%)" stroke-width="1.5"></path><path d="M1443.6 511.38L1443.6 511.38" stroke="hsl(228.5, 77.2%, 51.5%)" stroke-width="1.5"></path><path d="M1443.6 511.38L1441.68 650.67" stroke="hsl(228.5, 77.2%, 51.5%)" stroke-width="1.5"></path><path d="M1441.68 650.67L1441.68 650.67" stroke="hsl(228.5, 77.2%, 51.5%)" stroke-width="1.5"></path><path d="M1441.68 650.67L1565.1 678.96" stroke="hsl(228.5, 77.2%, 51.5%)" stroke-width="1.5"></path><path d="M1586.48 -78.44L1586.48 -78.44" stroke="hsl(228.5, 77.2%, 51.5%)" stroke-width="1.5"></path><path d="M1586.48 -78.44L1544.49 60.01" stroke="hsl(228.5, 77.2%, 51.5%)" stroke-width="1.5"></path><path d="M1586.48 -78.44L1423.24 243.87" stroke="hsl(228.5, 77.2%, 51.5%)" stroke-width="1.5"></path><path d="M1544.49 60.01L1544.49 60.01" stroke="hsl(228.5, 77.2%, 51.5%)" stroke-width="1.5"></path><path d="M1544.49 60.01L1288.35 193.95" stroke="hsl(228.5, 77.2%, 51.5%)" stroke-width="1.5"></path><path d="M1589.76 391.5L1589.76 391.5" stroke="hsl(228.5, 77.2%, 51.5%)" stroke-width="1.5"></path><path d="M1589.76 391.5L1593.09 491.67" stroke="hsl(228.5, 77.2%, 51.5%)" stroke-width="1.5"></path><path d="M1589.76 391.5L1443.6 511.38" stroke="hsl(228.5, 77.2%, 51.5%)" stroke-width="1.5"></path><path d="M1589.76 391.5L1565.1 678.96" stroke="hsl(228.5, 77.2%, 51.5%)" stroke-width="1.5"></path><path d="M1589.76 391.5L1441.68 650.67" stroke="hsl(228.5, 77.2%, 51.5%)" stroke-width="1.5"></path><path d="M1593.09 491.67L1593.09 491.67" stroke="hsl(228.5, 77.2%, 51.5%)" stroke-width="1.5"></path><path d="M1593.09 491.67L1443.6 511.38" stroke="hsl(228.5, 77.2%, 51.5%)" stroke-width="1.5"></path><path d="M1593.09 491.67L1565.1 678.96" stroke="hsl(228.5, 77.2%, 51.5%)" stroke-width="1.5"></path><path d="M1593.09 491.67L1441.68 650.67" stroke="hsl(228.5, 77.2%, 51.5%)" stroke-width="1.5"></path><path d="M1565.1 678.96L1565.1 678.96" stroke="hsl(228.5, 77.2%, 51.5%)" stroke-width="1.5"></path><circle r="25" cx="-73.08" cy="639.43" fill="url(#SvgjsRadialGradient1001)"></circle><circle r="25" cx="395.7" cy="537.11" fill="url(#SvgjsRadialGradient1001)"></circle><circle r="25" cx="542.74" cy="683.41" fill="url(#SvgjsRadialGradient1001)"></circle><circle r="25" cx="964.56" cy="400.63" fill="url(#SvgjsRadialGradient1001)"></circle><circle r="25" cx="1162.32" cy="363.16" fill="url(#SvgjsRadialGradient1001)"></circle><circle r="25" cx="1121.13" cy="658.15" fill="url(#SvgjsRadialGradient1001)"></circle><circle r="25" cx="1239.85" cy="-53.01" fill="url(#SvgjsRadialGradient1001)"></circle><circle r="25" cx="1252.39" cy="81.7" fill="url(#SvgjsRadialGradient1001)"></circle><circle r="25" cx="1288.35" cy="193.95" fill="url(#SvgjsRadialGradient1001)"></circle><circle r="25" cx="1399.2" cy="-63.24" fill="url(#SvgjsRadialGradient1001)"></circle><circle r="5" cx="-108.83" cy="552.05" fill="#8b9ad9"></circle><circle r="5" cx="69.56" cy="547.82" fill="#8b9ad9"></circle><circle r="5" cx="195.6" cy="518.89" fill="#8b9ad9"></circle><circle r="5" cx="221.91" cy="659.01" fill="#8b9ad9"></circle><circle r="5" cx="365.1" cy="656.01" fill="#8b9ad9"></circle><circle r="5" cx="506.52" cy="510.16" fill="#8b9ad9"></circle><circle r="5" cx="678.05" cy="406" fill="#8b9ad9"></circle><circle r="5" cx="697.39" cy="532.74" fill="#8b9ad9"></circle><circle r="5" cx="843.47" cy="407.21" fill="#8b9ad9"></circle><circle r="5" cx="854.37" cy="496.48" fill="#8b9ad9"></circle><circle r="5" cx="826.68" cy="671.15" fill="#8b9ad9"></circle><circle r="5" cx="1003.09" cy="509.34" fill="#8b9ad9"></circle><circle r="5" cx="951.67" cy="704.22" fill="#8b9ad9"></circle><circle r="5" cx="1091.8" cy="489.86" fill="#8b9ad9"></circle><circle r="5" cx="1299.1" cy="533.3" fill="#8b9ad9"></circle><circle r="5" cx="1304.62" cy="705.9" fill="#8b9ad9"></circle><circle r="5" cx="1445.95" cy="44.63" fill="#8b9ad9"></circle><circle r="5" cx="1423.24" cy="243.87" fill="#8b9ad9"></circle><circle r="5" cx="1401.43" cy="341.23" fill="#8b9ad9"></circle><circle r="5" cx="1443.6" cy="511.38" fill="#8b9ad9"></circle><circle r="5" cx="1441.68" cy="650.67" fill="#8b9ad9"></circle><circle r="5" cx="1586.48" cy="-78.44" fill="#8b9ad9"></circle><circle r="5" cx="1544.49" cy="60.01" fill="#8b9ad9"></circle><circle r="5" cx="1589.76" cy="391.5" fill="#8b9ad9"></circle><circle r="5" cx="1593.09" cy="491.67" fill="#8b9ad9"></circle><circle r="5" cx="1565.1" cy="678.96" fill="#8b9ad9"></circle></g><defs><mask id="SvgjsMask1000"><rect width="1440" height="560" fill="#ffffff"></rect></mask><radialGradient id="SvgjsRadialGradient1001"><stop stop-color="#ffffff" offset="0.1"></stop><stop stop-color="#1735b3" offset="0.2"></stop><stop stop-color="rgba(23, 53, 179, 0)" offset="1"></stop></radialGradient></defs></svg>