<svg xmlns="http://www.w3.org/2000/svg" version="1.1" xmlns:xlink="http://www.w3.org/1999/xlink" xmlns:svgjs="http://svgjs.com/svgjs" width="1440" height="560" preserveAspectRatio="none" viewBox="0 0 1440 560"><g mask="url(&quot;#SvgjsMask1000&quot;)" fill="none"><rect width="1440" height="560" x="0" y="0" fill="#0e2a47"></rect><circle r="6.855" cx="319.065" cy="261.445" filter="url(#SvgjsFilter1001)" fill="rgba(51, 121, 194, 0.58)"></circle><circle r="4.875" cx="480.945" cy="207.625" filter="url(#SvgjsFilter1001)" fill="rgba(51, 121, 194, 0.58)"></circle><circle r="4.945" cx="1128.155" cy="21.635" filter="url(#SvgjsFilter1001)" fill="rgba(51, 121, 194, 0.58)"></circle><circle r="7.705" cx="183.50500000000002" cy="15.065000000000001" filter="url(#SvgjsFilter1001)" fill="rgba(51, 121, 194, 0.58)"></circle><circle r="6.07" cx="678.4000000000001" cy="112.53" filter="url(#SvgjsFilter1001)" fill="rgba(51, 121, 194, 0.58)"></circle><circle r="8.025" cx="946.685" cy="434.935" filter="url(#SvgjsFilter1001)" fill="rgba(51, 121, 194, 0.58)"></circle><circle r="8.89" cx="1303.8600000000001" cy="506.55" filter="url(#SvgjsFilter1001)" fill="rgba(51, 121, 194, 0.58)"></circle><circle r="8.96" cx="584.01" cy="175.52" filter="url(#SvgjsFilter1001)" fill="rgba(51, 121, 194, 0.58)"></circle><circle r="4.745" cx="555.755" cy="426.435" filter="url(#SvgjsFilter1001)" fill="rgba(51, 121, 194, 0.58)"></circle><circle r="6.48" cx="1422.92" cy="427.94" filter="url(#SvgjsFilter1001)" fill="rgba(51, 121, 194, 0.58)"></circle><circle r="5.09" cx="13.89" cy="177.96" filter="url(#SvgjsFilter1001)" fill="rgba(51, 121, 194, 0.58)"></circle><circle r="6.07" cx="662.1500000000001" cy="403.71" filter="url(#SvgjsFilter1001)" fill="rgba(51, 121, 194, 0.58)"></circle><circle r="7.73" cx="1091.95" cy="416.61" filter="url(#SvgjsFilter1001)" fill="rgba(51, 121, 194, 0.58)"></circle><circle r="7.36" cx="130.66" cy="244.64000000000001" filter="url(#SvgjsFilter1001)" fill="rgba(51, 121, 194, 0.58)"></circle><circle r="6.11" cx="428.79" cy="373.01" filter="url(#SvgjsFilter1001)" fill="rgba(51, 121, 194, 0.58)"></circle><circle r="7.145" cx="391.815" cy="562.855" filter="url(#SvgjsFilter1001)" fill="rgba(51, 121, 194, 0.58)"></circle><circle r="7.775" cx="896.615" cy="170.79500000000002" filter="url(#SvgjsFilter1001)" fill="rgba(51, 121, 194, 0.58)"></circle><circle r="5.17" cx="1167.89" cy="339.39000000000004" filter="url(#SvgjsFilter1001)" fill="rgba(51, 121, 194, 0.58)"></circle><circle r="4.81" cx="1226.1399999999999" cy="356.12" filter="url(#SvgjsFilter1001)" fill="rgba(51, 121, 194, 0.58)"></circle><circle r="4.765" cx="663.765" cy="292.645" filter="url(#SvgjsFilter1001)" fill="rgba(51, 121, 194, 0.58)"></circle><path d="M853.6 204L906.1 210.7 915.4 222 903.2 252.3 888.5 254.6 846.2 222.4C845.6 222.2 845.6 222.2 845 222 843.8 221.5 842.4 221.6 841.1 223.1 840.4 224.9 840.5 226.4 842.1 227.7L879.1 255.7 856.4 258.9 839.9 246.8C839.9 246.8 839.3 246.6 839.3 246.6 838.1 246.1 836.7 246.2 835.4 247.7 834.3 248.7 834.8 250.9 836.3 252.3L846.7 260.6 830 262.8C828.6 262.9 827.2 264.5 827.1 266.5S829.4 269.5 831.4 269.6L847.6 267.1 839.8 277.8C838.5 279.4 839 281.6 840.5 282.9 841.7 283.4 843.7 283.5 845 282L857.2 265.5 880.5 262.4 852.5 299.5C851.2 301 851.7 303.3 852.6 304.3 854.4 305.1 856.4 305.2 857.7 303.6L889.3 261.2 904.6 259 924.2 284.2 918.5 298.4 869.9 319.6C868.3 320.3 867.5 322.1 868.3 323.7S870.7 326.1 872.4 325.4L915.1 306.7 906.3 328.7 888 336.5C886.3 337.2 885.6 339 886 341.2S888.5 343.6 890.2 342.9L902.9 337 896.5 353C895.8 354.8 897.1 356.7 898.9 357.4 900.6 358.1 902.3 357.4 903 355.7L909.5 339.6 914.8 352.1C915.3 354.4 917 355.1 918.9 353.8 920.6 353.1 921.3 351.3 920.6 349.6L912.8 331.3 921.6 309.3 939.5 352.4C940.2 354.1 942.6 355 944.3 354.3S946.6 351.8 945.9 350.2L925 301 930.7 286.8 962.8 282.4 971.8 294.3 965.2 346.9C965.1 348.9 966.6 350.2 968.4 350.9 970.4 351 971.7 349.5 972.4 347.7L977.9 301.6 992 319.7 989.3 340C989.2 342 990.7 343.3 992.5 344.1 994 343.9 995.9 342.6 996 340.6L997.8 327.6 1008.3 340.8C1009.3 341.8 1011.3 342 1013 341.2 1014.3 339.7 1014.4 337.7 1013.5 336.6L1002.9 323.4 1016.8 324.9C1018.2 324.7 1020.1 323.4 1020 322 1020.7 320.2 1019.8 319.2 1018 318.4 1018 318.4 1017.4 318.2 1017.4 318.2L997.1 315.5 983 297.5 1029.1 302.9C1031.1 303 1032.8 302.3 1032.9 300.3 1033 298.3 1032.1 297.2 1030.9 296.7 1030.3 296.5 1030.3 296.5 1030.3 296.5L976.9 290.2 967.9 278.3 980.1 248 994.6 246.3 1037.7 278.1C1038.6 279.1 1040.9 278.7 1042 277.7 1043.3 276.2 1042.8 273.9 1041.3 272.6L1004.2 244.6 1026.9 241.3 1043.4 253.5C1045 254.8 1047 254.9 1047.7 253.1 1049 251.6 1048.6 249.3 1047.6 248.3L1036.3 240.3 1053.1 238C1054.8 237.3 1056.1 235.8 1056.2 233.8 1055.8 232.9 1054.9 231.9 1053.7 231.4 1053.1 231.2 1053.1 231.2 1052.3 231.5L1035.5 233.7 1043.5 222.5C1044.8 220.9 1044.1 219.3 1043.2 218.2 1042.6 217.9 1042.6 217.9 1042 217.7 1040.8 217.2 1039.4 217.3 1038.3 218.3L1026.1 234.8 1003.4 238.1 1031.4 201C1032.1 199.3 1032.3 197.2 1030.5 196.5 1030.1 195.7 1030.1 195.7 1029.5 195.5 1028.3 195 1026.7 195.7 1025.6 196.6L993.8 239.7 979.3 241.5 959.1 216.1 964.6 202.5 1013.8 181.5C1015.4 180.8 1016.4 178.4 1015.7 176.8S1012.6 174.2 1010.9 174.9L968.2 193.6 976.8 172.2 995.4 163.8C997 163.1 997.7 161.3 997 159.6 996.3 158 994.5 157.2 992.9 158L980.4 163.3 986.8 147.2C987.3 146.1 986.8 143.8 985.1 143.1 983.3 142.4 980.8 143.4 980.3 144.6L973.9 160.6 968.5 148.2C968.2 147.3 967.8 146.5 967.2 146.3 966 145.8 965.2 146.1 964.4 146.5 962.7 147.2 962 149 962.7 150.6L970.3 169.6 961.7 190.9 943.8 147.9C943.5 147 942.9 146.8 941.7 146.3 941.1 146.1 940.5 145.8 939.7 146.2 938 146.9 937 149.3 937.7 151L958.1 199.8 952.6 213.5 921.1 218.1 911.3 206.5 918.1 153.4C918 152 917.3 150.3 916.1 149.8 915.5 149.6 915.5 149.6 915.3 150.2 913.5 149.5 911.6 150.8 911.5 152.8L906 198.9 891.3 180.6 894 160.3C893.9 158.8 892.9 157.8 891.7 157.3 891.7 157.3 891.1 157 891.1 157 889.4 156.3 887.5 157.6 887.3 159.7L885.9 173.6 875.3 160.3C875 159.5 874.4 159.3 873.8 159 872.6 158.6 871.2 158.7 870.9 159.3 869 160.6 868.9 162.6 869.6 164.3L880.2 177.5 867.1 175.7C865.1 175.5 863.2 176.8 863.1 178.9 863.2 180.3 864.5 182.2 865.9 182.1L886.2 184.7 900.3 202.8 854.2 197.4C852.2 197.3 850.9 198.8 850.2 200.6 850.3 202 851.6 203.9 853.6 204ZM911.2 251.3L920.5 228.2 921.9 224.6 925.6 224 949.7 220.6 954 220.3 956.3 223.2 971.3 242.4 973.6 245.4 972.1 248.9 962.8 272.1 961.4 275.7 957.7 276.3 933.6 279.7 929.9 280.2 927.1 277 912 257.9 909.7 254.9 911.2 251.3Z" fill="rgba(51, 121, 194, 0.58)"></path><path d="M1008 430.2L1021.3 474.7 1001.4 511 979.9 475.6 991.2 430.5C991.2 430.5 991.2 430 991.2 430 991.2 428.9 990 427.8 988.9 427.2 987.2 426.7 985.6 427.9 985.6 429.5L975.8 469 965.4 451.8 969.5 434.4C969.5 434.4 969.4 433.8 969.4 433.8 969.4 432.7 968.3 431.6 967.1 431.1 965.5 430.6 963.8 431.7 963.8 433.4L960.7 445.2 953.2 432.5C952.6 431.4 950.3 430.9 949.2 431.5 947.6 432.1 947.6 434.3 948.2 435.4L955.8 448.1 943.9 445C942.2 444.5 940.6 445.7 940.6 447.3 940.1 449 941.2 450.7 942.9 450.7L960.4 454.8 970.3 471.9 930.9 462.1C929.2 461.6 927.5 462.8 927.5 464.4 927 466.1 928.2 467.8 929.9 467.7L974.9 479.1 996.4 514.5 954.4 515.4 920.7 483.1C919.5 482 917.9 482 916.8 483.2 915.7 484.3 915.7 486 916.8 487.1L946.6 515.5 926.4 516 913.9 503.9C912.7 502.9 911 502.9 909.9 504 908.8 505.2 908.9 506.9 910 508L918.6 516.2 902.9 516.5C901.2 516 900.2 517.7 900.2 519.4 900.2 521 901.4 522.1 903.1 522.1L917.6 521.8 909.4 530.4C908.3 531.5 908.3 533.2 909.5 534.3S912.3 535.3 913.4 534.2L925.4 521.6 945.6 521.2 917.1 550.9C916 552.1 916.1 553.7 917.2 554.8 918.4 555.9 920 555.9 921.1 554.8L953.4 521 994.9 520.1 974.9 556.4 931.5 569.1C929.9 569.7 929.3 571.4 929.4 573.1 930 574.7 931.7 575.3 933.3 575.2L972.3 563.7 962.6 581.3 945.3 586.2C943.7 586.7 943.2 588.4 943.2 590.1 943.8 591.8 945.5 592.3 946.6 592.3L958.3 588.7 951.3 601.7C950.8 602.8 950.8 605.1 952.5 605.6 954.2 606.1 955.9 606.1 956.4 604.4L963.4 591.4 967 603C967.6 604.7 969.3 605.2 970.4 605.2 971.5 604.6 972.6 603.5 972.6 602.4 972.6 602.4 972.6 601.8 972.6 601.8L967.7 584.5 977.4 567 988.9 605.9C989.5 607.6 991.2 608.1 992.3 608.1 993.4 607.5 994.5 606.4 994.5 605.2 994.5 605.2 994.5 604.7 994.5 604.7L981.2 560.2 1001.1 523.9 1022.6 559.2 1011.3 604.3C1010.8 606 1011.9 607.7 1013.6 607.6 1015.3 608.1 1016.9 607 1016.9 605.3L1026.7 565.9 1037.1 583 1033 600.5C1032.5 602.2 1033.7 603.8 1035.4 603.8 1037.1 604.3 1038.7 603.1 1038.7 601.5L1041.8 589.6 1049.3 602.3C1049.9 603.5 1052.2 604 1053.3 603.4 1054.4 602.8 1054.9 601.7 1054.9 600.5 1054.9 600 1054.9 599.4 1054.3 598.9L1046.7 586.2 1058.6 589.3C1060.3 589.8 1061.9 588.6 1061.9 587 1061.9 587 1061.9 586.4 1061.9 586.4 1061.8 585.3 1060.7 584.2 1059.6 583.6L1042.1 579.5 1031.6 562.4 1071.1 572.2C1072.8 572.7 1074.4 571.6 1074.4 569.9 1074.4 569.9 1074.4 569.3 1074.4 569.3 1074.3 568.2 1073.2 567.1 1072.1 566.6L1027 555.2 1005.5 519.9 1046.9 518.9 1080.7 551.2C1081.8 552.3 1083.5 552.3 1084.6 551.2 1085.7 550 1085.7 548.3 1084.5 547.2L1055.3 518.8 1075.5 518.3 1088.1 530.4C1089.2 531.5 1090.9 531.4 1092 530.3S1093.1 527.5 1091.9 526.4L1083.3 518.1 1097.9 517.8C1099.6 517.8 1100.7 516.6 1100.6 515 1100.6 513.3 1099.4 512.2 1097.8 512.2L1083.2 512.5 1091.4 504C1092 503.4 1092.5 502.8 1092.5 501.7S1091.9 500 1091.3 499.5C1090.2 498.4 1088.5 498.4 1087.4 499.6L1075.4 512.2 1055.2 512.6 1083.7 482.8C1084.2 482.3 1084.8 481.7 1084.7 480.6 1084.7 480 1084.1 478.9 1083.6 478.4 1082.4 477.3 1080.7 477.3 1079.7 478.5L1047.3 512.2 1005.9 513.1 1025.8 476.8 1070.4 463.5C1071.5 462.9 1072.6 461.8 1072.5 460.7 1072.5 460.7 1072.5 460.1 1072.5 460.1 1071.9 458.5 1070.2 457.9 1069.1 458L1030.2 469.5 1039.9 451.9 1057.1 447C1058.2 446.4 1059.3 445.3 1059.3 444.2 1059.3 444.2 1059.3 443.6 1059.3 443.6 1058.7 441.9 1057 441.4 1055.9 441.4L1044.2 445.1 1051.2 432C1051.2 431.5 1051.7 430.9 1051.7 430.3 1051.7 429.2 1051.1 428.1 1050 427.6 1048.3 427.1 1046.6 427.1 1046.1 428.8L1039.1 441.8 1035.5 430.1C1034.9 428.5 1033.2 427.9 1032.1 428 1030.4 428.6 1029.9 430.3 1029.9 431.4L1034.7 448.6 1025.1 466.2 1013.6 427.3C1013 425.6 1011.3 425.1 1010.1 425.1 1008.5 426.8 1007.4 428.5 1008 430.2Z" fill="rgba(51, 121, 194, 0.58)"></path><path d="M290.4 150.9L338.1 174 343.2 187.7 321.9 212.5 307.2 210 277.5 165.9C277 165.5 277 165.5 276.6 165.1 275.6 164.3 274.2 163.9 272.5 165 271.2 166.4 270.9 167.8 271.9 169.5L298 207.9 275.4 203.8 263.7 187C263.7 187 263.2 186.5 263.2 186.5 262.2 185.7 260.9 185.4 259.1 186.4 257.8 187 257.5 189.2 258.6 191L265.8 202.2 249.2 199C247.8 198.6 246.1 199.7 245.3 201.5S246.5 205.1 248.4 205.8L264.5 208.7 253.7 216.3C252 217.4 251.7 219.7 252.7 221.4 253.7 222.2 255.6 223 257.3 221.9L274.1 210.2 297.1 214.8 258.7 240.9C257 241.9 256.7 244.2 257.3 245.5 258.7 246.8 260.6 247.6 262.4 246.5L305.9 216.4 321.1 219.3 331.6 249.4 321.6 261.1 268.8 265.5C267 265.7 265.7 267.1 265.9 268.9S267.5 272 269.3 271.9L315.7 267.9 300.3 285.8 280.5 287.3C278.6 287.5 277.4 288.9 277.1 291.2S278.7 294.3 280.5 294.2L294.5 292.6 283.2 305.7C282 307.2 282.6 309.4 284 310.7 285.5 311.9 287.3 311.8 288.6 310.3L299.8 297.2 300.8 310.8C300.6 313 302 314.3 304.2 313.7 306.1 313.5 307.3 312.1 307.2 310.3L305.6 290.4 321.1 272.4 324.2 319C324.3 320.8 326.2 322.4 328.1 322.3S331.1 320.7 331 318.9L326.9 265.6 336.9 254 368.7 260.2 373.4 274.3 350.3 322C349.5 323.8 350.5 325.6 352 326.8 353.9 327.6 355.6 326.5 356.9 325.1L376.8 283.2 384.4 304.8 375.3 323.2C374.6 325.1 375.6 326.8 377.1 328.1 378.4 328.4 380.7 327.8 381.4 325.9L387.3 314.1 393.1 330C393.6 331.3 395.5 332.1 397.3 332 399.1 330.9 399.8 329.1 399.3 327.7L393.5 311.8 406.2 317.7C407.6 318 409.8 317.4 410.2 316 411.4 314.6 410.9 313.2 409.4 312 409.4 312 408.9 311.6 408.9 311.6L390.5 302.5 383 280.9 424.9 300.8C426.8 301.6 428.6 301.4 429.3 299.6 430.1 297.7 429.6 296.4 428.6 295.5 428.1 295.1 428.1 295.1 428.1 295.1L379.6 272.1 374.9 257.9 396.1 233.1 410.4 236.1 441 280.1C441.6 281.4 443.9 281.7 445.2 281.1 446.9 280.1 447.2 277.8 446.2 276L420.1 237.6 442.6 241.8 454.4 258.6C455.4 260.4 457.3 261.1 458.5 259.7 460.3 258.6 460.5 256.3 460 255L451.9 243.8 468.5 247.1C470.3 247 472 245.9 472.8 244.1 472.7 243.2 472.1 241.8 471.2 241 470.7 240.6 470.7 240.6 469.8 240.7L453.2 237.4 464.4 229.3C466.1 228.2 466 226.4 465.4 225.1 464.9 224.7 464.9 224.7 464.4 224.3 463.5 223.4 462.1 223.1 460.8 223.6L444 235.4 421.4 231.2 459.8 205.1C461 203.7 461.8 201.8 460.4 200.5 460.3 199.6 460.3 199.6 459.8 199.2 458.8 198.4 457 198.5 455.7 199.1L411.7 229.7 397.5 226.7 386.5 196.2 396.1 185 449.3 180.9C451.1 180.8 452.8 178.9 452.7 177.1S450.6 173.6 448.8 173.7L402.3 177.7 417.3 160.2 437.6 158.2C439.4 158.1 440.7 156.6 440.5 154.8 440.4 153 438.9 151.8 437.1 151.9L423.6 153 434.8 139.8C435.7 138.9 436 136.6 434.5 135.3 433 134.1 430.3 134.3 429.5 135.3L418.2 148.4 417.2 134.8C417.1 133.9 417.1 133 416.6 132.6 415.6 131.8 414.7 131.9 413.8 131.9 412 132.1 410.8 133.5 410.9 135.3L412 155.7 397 173.1 393.9 126.6C393.8 125.7 393.3 125.3 392.4 124.5 391.9 124.1 391.4 123.6 390.5 123.7 388.7 123.9 387 125.8 387.2 127.6L390.7 180.4 381.2 191.6 349.9 185.8 344.2 171.7 367.8 123.6C368.1 122.2 368 120.4 367 119.6 366.5 119.2 366.5 119.2 366.1 119.7 364.7 118.4 362.4 119.1 361.7 120.9L341.7 162.8 333.7 140.8 342.7 122.4C343.1 121 342.5 119.7 341.6 118.8 341.6 118.8 341.1 118.4 341.1 118.4 339.6 117.2 337.4 117.8 336.6 119.7L330.8 132.4 325 116.5C325 115.6 324.5 115.1 324 114.7 323 113.9 321.6 113.5 321.2 114 319 114.7 318.2 116.5 318.4 118.3L324.1 134.2 312.3 128.3C310.5 127.6 308.2 128.2 307.5 130.1 307.1 131.4 307.7 133.7 309.1 134L327.5 143.1 335.1 164.7 293.2 144.8C291.3 144 289.5 145 288.3 146.5 287.9 147.9 288.6 150.1 290.4 150.9ZM329.8 214.1L346 195.2 348.5 192.3 352.2 192.9 376.2 197.4 380.3 198.5 381.5 202 389.6 225 390.8 228.5 388.3 231.5 372 250.4 369.5 253.3 365.9 252.7 341.9 248.2 338.2 247.5 336.6 243.6 328.5 220.6 327.3 217.1 329.8 214.1Z" fill="rgba(51, 121, 194, 0.58)"></path><path d="M676 153.3L655.7 170.2 648.4 169.8 641.5 155 645.7 148.8 671.8 144.3C672.1 144.2 672.1 144.2 672.4 144 673 143.8 673.4 143.2 673.3 142.2 672.9 141.3 672.3 140.9 671.3 141L648.5 145 655 135.6 665.1 133.7C665.1 133.7 665.4 133.6 665.4 133.6 665.9 133.3 666.4 132.7 666.3 131.7 666.3 131 665.3 130.4 664.3 130.5L657.7 131.5 662.6 124.6C663 124 662.9 123 662.2 122.3S660.4 122.1 659.6 122.8L655 129.6 653.7 123.1C653.6 122.1 652.6 121.5 651.6 121.6 651.1 121.9 650.3 122.6 650.4 123.6L652.3 133.7 645.5 143.2 641.5 120.4C641.4 119.4 640.4 118.8 639.7 118.7 638.8 119.1 638.1 119.8 638.2 120.8L643 146.9 638.5 153.2 622.7 151.8 619.4 144.9 628.2 119.9C628.5 119 628.1 118.2 627.3 117.9S625.5 118 625.2 118.8L617.5 140.8 612.5 130.1 615.9 120.7C616.2 119.9 615.8 119 614.8 118.4S613.1 118.5 612.8 119.3L610.6 126 606.9 118.2C606.5 117.3 605.4 117.2 604.5 117.6 603.6 118 603.3 118.8 603.7 119.7L607.4 127.5 601 125.2C600 124.6 599.2 125 599 126.2 598.7 127 599.1 127.9 599.9 128.2L609.3 131.6 614.3 142.3 592.5 134.2C591.6 133.9 590.5 134.4 590.2 135.2S590.3 137 591.1 137.3L616.2 146.3 619.5 153.3 610.1 166.5 602.7 165.8 585.8 145.4C585.1 144.7 584.1 144.8 583.2 145.2 582.5 145.9 582.6 146.9 583 147.8L598 165.5 586.6 164.5 580 156.6C579.3 155.9 578.3 156 577.5 156.4 577 157 576.9 158.1 577.6 158.8L581.7 164 573.3 163.3C572.6 163.3 571.8 164 571.5 164.8 571.7 165.8 572.3 166.6 573.1 166.6L581.5 167.2 576.2 171.8C575.8 172.4 575.6 173.5 576.2 174 576.6 174.8 577.3 174.9 578.2 174.5 578.2 174.5 578.5 174.3 578.5 174.3L586.3 167.8 597.8 168.8 580.1 183.8C579.3 184.5 579 185.4 579.7 186.1 580.4 186.8 581.1 186.8 581.7 186.6 582 186.4 582 186.4 582 186.4L602.5 169.1 609.9 169.8 616.8 184.6 612.5 190.5 586.2 195.4C585.5 195.4 584.9 196.4 584.9 197.1 585 198.1 586 198.7 587 198.6L609.9 194.6 603.3 204 593.3 205.9C592.3 206 591.5 206.7 591.9 207.6 592.1 208.6 593 209.2 593.8 209.2L600.5 207.8 595.6 214.7C595.3 215.5 595.4 216.5 596.1 217.3 596.6 217.4 597.3 217.5 597.8 217.2 598.1 217 598.1 217 598.3 216.6L603.2 209.7 604.6 216.5C604.7 217.5 605.6 217.8 606.3 217.8 606.6 217.7 606.6 217.7 606.9 217.5 607.4 217.3 607.9 216.7 607.9 216L606 205.9 612.5 196.5 616.5 219.4C617 220.2 617.7 221 618.5 220.6 618.9 220.7 618.9 220.7 619.2 220.6 619.8 220.3 620.1 219.5 620.1 218.7L615.2 192.4 619.5 186.5 635.7 187.8 638.8 194.4 629.7 219.6C629.4 220.4 629.9 221.6 630.8 221.9S632.8 221.6 633.1 220.8L640.8 198.8 645.7 209.2 642.5 218.9C642.2 219.7 642.6 220.6 643.4 220.9 644.3 221.2 645.1 220.8 645.5 219.9L647.8 213.6 651.4 221.4C651.7 222 652.7 222.6 653.6 222.2 654.4 221.7 654.9 220.5 654.6 219.9L650.9 212.1 657.3 214.4C657.8 214.5 658.2 214.7 658.5 214.5 659 214.3 659.2 213.8 659.4 213.4 659.7 212.6 659.3 211.7 658.4 211.4L648.9 207.7 644 197.3 665.9 205.4C666.3 205.6 666.6 205.4 667.2 205.2 667.4 205 667.7 204.9 667.9 204.5 668.2 203.6 667.6 202.5 666.8 202.2L642 192.9 638.8 186.3 647.9 173.2 655.5 173.5 672.6 194.1C673.1 194.6 674 194.9 674.6 194.6 674.9 194.5 674.9 194.5 674.7 194.2 675.6 193.8 675.8 192.6 675.1 191.9L660.1 174.2 671.8 175.1 678.3 183C678.9 183.4 679.6 183.4 680.2 183.2 680.2 183.2 680.4 183 680.4 183 681.3 182.6 681.5 181.5 680.8 180.7L676.2 175.5 684.6 176.1C685.1 176.3 685.3 176.1 685.6 176 686.2 175.7 686.7 175.2 686.5 174.9 686.7 173.7 686 173 685.1 172.7L676.7 172.1 681.8 167.9C682.6 167.2 682.7 166.1 682 165.3 681.5 164.9 680.3 164.7 679.9 165.3L672 171.8 660.6 170.8 678.3 155.8C679 155.1 678.9 154.1 678.5 153.2 677.9 152.8 676.8 152.6 676 153.3ZM639.1 158.2L644.4 169.5 645.2 171.3 644.2 172.8 637.2 182.8 635.9 184.5 634 184.3 621.9 183.3 620 183.1 619.2 181.4 613.9 170.1 613.1 168.3 614.1 166.8 621.1 156.8 622.2 155.2 624.3 155.3 636.5 156.3 638.3 156.5 639.1 158.2Z" fill="rgba(51, 121, 194, 0.58)"></path><path d="M493.5 345.5L483.4 350.5 483.6 343.7C483.7 343 483 342.2 482.1 342 481.2 342.2 480.4 342.8 480.6 343.7L480.1 352.1 472.4 356.3 473.5 338.7C473.3 337.8 472.7 337.1 471.9 337 470.8 337 470 337.6 470.2 338.5L469.1 358 457.2 364 459.7 348.9 447 357.4 447.6 344.1 464.8 335C465.1 335.2 465.3 335 465.4 334.7 465.8 334.1 465.8 333.4 465.5 332.8 465.1 332.2 464.1 332 463.3 332.1L447.7 340.4 448.3 331.7 455.8 327.7C456.3 327.6 456.4 327.4 456.6 327.1 456.8 326.8 456.9 326.1 456.5 325.5 456.1 324.9 455.1 324.6 454.5 325L448.5 327.9 448.8 316.8C449.1 315.8 448.2 315.3 447.3 315 446.6 314.9 445.8 315.6 445.8 316.7L445.2 327.7 439.5 324.1C438.7 323.6 437.6 324 437.3 324.6 436.8 325.4 437 326.3 437.8 326.8L445 331.5 444.4 340.2 429.9 330.8C429 330.3 428.2 330.5 427.6 331.3 427.3 331.8 427.3 333 428.1 333.5L444.3 343.9 443.7 357.2 431.9 347.7 432.9 362.8 421.6 355.5 422.5 336.4C422.5 335.2 421.7 334.7 421 334.6 420.2 334.5 419.5 335.2 419.2 336.1L418.6 353.6 411.3 349 411.5 340.4C411.8 339.4 411.2 338.6 410 338.6 409.3 338.5 408.5 339.2 408.5 340.3L408.1 346.9 398.7 340.8C397.9 340.3 397 340.5 396.5 341.3S396.1 343 397 343.5L406.4 349.6 400.6 352.7C399.5 353.2 399.3 354.1 399.6 354.7 400.1 355.8 401.1 356.1 401.9 355.4L409.6 351.7 416.9 356.3 401.2 364.1C400.4 364.8 400.2 365.7 400.5 366.4 401 367.4 402 367.7 402.8 367L419.8 358.2 431.1 365.5 417 370.9 430.5 377.7 418.6 383.7 402.5 373.3C401.7 372.8 400.6 373.3 400.3 373.8 399.8 374.6 400 375.5 400.8 376L415.6 385.6 407.6 389.6 400.4 384.9C399.6 384.4 398.7 384.6 398.2 385.4 397.8 385.9 397.8 387.1 398.6 387.6L404.3 391.2 394.5 396.4C393.5 396.8 393.2 397.8 393.9 398.6 394.2 399.2 395 399.7 395.8 399.1L405.9 394.1 405.7 400.9C405.6 401.6 406.3 402.4 407 402.5 407.7 402.5 408.3 402.2 408.5 401.9 408.6 401.6 408.8 401.4 408.7 400.9L409.2 392.5 416.9 388.3 415.8 405.9C416 406.8 416.6 407.6 417.3 407.6 418.1 407.7 418.7 407.3 419 406.8 419.2 406.5 419.2 406.5 419.1 406.1L420.2 386.6 432.1 380.6 429.6 395.7 442.3 387.2 441.7 400.5 424.5 409.6C423.9 409.9 423.3 410.7 423.8 411.8 424.2 412.4 425.1 412.7 426 412.5L441.6 404.2 441 412.9 433.5 416.9C432.6 417.1 432.3 418 432.8 419.1 433.2 419.7 434.1 420 435 419.8L440.8 416.7 440.5 427.8C440.2 428.8 441 429.3 442 429.6 442.5 429.5 443.1 429.1 443.3 428.9 443.4 428.6 443.6 428.3 443.5 427.9L444.1 416.9 449.8 420.5C450.6 421 451.6 420.6 452 420L452 420C452.5 419.2 452.3 418.3 451.5 417.8L444.2 413.1 444.9 404.4 459.4 413.8C460.2 414.3 461.1 414.1 461.6 413.3S462 411.6 461.2 411.1L445 400.7 445.6 387.4 457.4 396.9 456.4 381.8 467.7 389.1 466.8 408.2C466.8 409.4 467.6 409.9 468.3 410 469 410.1 469.8 409.4 470.1 408.5L471 391.1 478 395.6 477.7 404.3C477.5 405.2 478.1 406 479.3 406 480 406.1 480.8 405.4 481 404.5L481.2 397.7 490.6 403.8C491.4 404.3 492.3 404.1 492.8 403.3S493.1 401.6 492.3 401.1L482.9 395 488.7 391.9C489.2 391.8 489.3 391.5 489.5 391.3 489.9 390.7 489.8 390.3 489.7 389.9 489.2 388.8 488.2 388.5 487.4 389.2L479.7 392.9 472.4 388.3 488.1 380.5C488.3 380.2 488.4 379.9 488.6 379.7 489 379.1 488.9 378.7 488.8 378.2 488.3 377.2 487.3 376.9 486.5 377.6L469.5 386.4 458.2 379.1 472.3 373.7 458.8 366.9 470.6 360.9 486.8 371.3C487.6 371.8 488.7 371.3 489 370.8 489.5 370 489.3 369.1 488.5 368.6L474 359.2 481.6 355 488.9 359.7C489.7 360.2 490.6 360 491.1 359.2S491.4 357.5 490.6 357L485 353.4 494.8 348.2C495.2 348.1 495.4 347.9 495.5 347.6 495.7 347.3 495.8 346.6 495.4 346 495.1 345.4 494.3 344.9 493.5 345.5ZM464.5 373.3L453 377.7 453.8 390 444 382.2 433.9 389 435.7 376.8 424.7 371.3 436.3 366.9 435.5 354.6 445 362.3 455.4 355.6 453.4 367.6 464.5 373.3Z" fill="rgba(51, 121, 194, 0.58)"></path><path d="M1294.5 380.4L1343.9 361.3 1357.4 366.9 1361.1 399.3 1349.2 408.4 1296.8 400.1C1296.1 400.2 1296.1 400.2 1295.5 400.3 1294.2 400.4 1293 401.2 1292.6 403.2 1292.8 405.1 1293.6 406.3 1295.6 406.7L1341.4 413.8 1323 427.4 1302.7 424.6C1302.7 424.6 1302.1 424.7 1302.1 424.7 1300.8 424.8 1299.6 425.6 1299.2 427.6 1298.7 428.9 1300.2 430.7 1302.2 431.1L1315.3 433.5 1301.6 443.4C1300.4 444.2 1300 446.1 1300.9 448S1304.3 449.5 1306.1 448.7L1319.1 438.8 1317.4 451.9C1317 453.9 1318.5 455.7 1320.4 456.1 1321.7 455.9 1323.6 455.1 1324 453.1L1326.8 432.8 1345.9 419.1 1338.8 465C1338.4 466.9 1339.9 468.7 1341.2 469.2 1343.2 469 1345 468.1 1345.4 466.1L1353 413.8 1365.5 404.6 1394.7 417.4 1396.4 432.7 1363.7 474.4C1362.6 475.8 1362.8 477.7 1364.2 478.8S1367.6 479.7 1368.7 478.3L1397.4 441.6 1400 465.1 1387.6 480.7C1386.5 482.1 1386.7 484 1388.2 485.8S1391.5 486.7 1392.7 485.3L1401 474 1403 491.2C1403.2 493.1 1405.2 494.2 1407.2 494 1409.1 493.7 1410.2 492.3 1410 490.4L1408 473.3 1418.7 481.7C1420.1 483.5 1422 483.3 1423.1 481.2 1424.2 479.8 1424 477.9 1422.6 476.8L1407 464.3 1404.4 440.8 1440.5 470.2C1442 471.4 1444.5 471.1 1445.6 469.7S1446.5 466.3 1445.1 465.2L1403.4 431.9 1401.7 416.7 1427.9 397.6 1441.4 403.8 1460.5 453.2C1461.4 455 1463.4 455.4 1465.3 455.2 1467.1 454.4 1467.5 452.4 1467.3 450.5L1450.2 407.3 1471.2 416.5 1478.5 435.7C1479.4 437.5 1481.3 437.9 1483.3 437.7 1484.5 436.9 1485.5 434.9 1484.7 433.1L1480 420.7 1495.6 427.3C1497 427.8 1498.8 427 1499.9 425.5 1500.3 423.6 1499.5 421.7 1498.1 421.2L1482.6 414.6 1495.5 409.3C1496.7 408.5 1497.8 406.5 1497 405.3 1496.8 403.4 1495.4 402.9 1493.5 403.1 1493.5 403.1 1492.9 403.2 1492.9 403.2L1473.7 410.5 1452.7 401.2 1495.9 384.1C1497.7 383.3 1498.9 381.9 1498 380 1497.2 378.2 1495.8 377.7 1494.5 377.8 1493.9 377.9 1493.9 377.9 1493.9 377.9L1444 397.7 1430.4 391.5 1426.7 359.1 1438.7 350.7 1491.7 358.2C1493 358.7 1494.8 357.2 1495.3 355.9 1495.7 353.9 1494.2 352.1 1492.2 351.7L1446.4 344.6 1464.8 331 1485.1 333.8C1487.1 334.3 1488.9 333.4 1488.7 331.5 1489.1 329.5 1487.6 327.7 1486.3 327.3L1472.5 325.6 1486.2 315.7C1487.4 314.2 1487.8 312.3 1486.9 310.4 1486.2 309.9 1484.9 309.4 1483.6 309.5 1483 309.6 1483 309.6 1482.4 310.3L1468.7 320.2 1470.4 306.5C1470.8 304.5 1469.4 303.4 1468.1 302.9 1467.4 303 1467.4 303 1466.8 303 1465.5 303.2 1464.3 304 1463.8 305.3L1461 325.6 1442.5 339.3 1449.6 293.4C1449.4 291.5 1448.5 289.6 1446.6 289.9 1445.9 289.3 1445.9 289.3 1445.3 289.4 1444 289.5 1442.9 290.9 1442.4 292.3L1434.8 345.3 1422.9 353.7 1393.1 341 1391.5 326.3 1424.8 284.6C1425.9 283.2 1425.6 280.6 1424.2 279.5S1420.2 278.7 1419.1 280.1L1390.4 316.8 1387.8 293.9 1400.2 277.7C1401.3 276.3 1401.1 274.4 1399.7 273.3 1398.3 272.1 1396.3 272.3 1395.2 273.8L1386.8 284.4 1384.8 267.2C1384.7 265.9 1383.2 264.2 1381.3 264.4 1379.4 264.6 1377.7 266.7 1377.8 268L1379.8 285.2 1369.1 276.7C1368.4 276.1 1367.7 275.6 1367.1 275.6 1365.8 275.8 1365.3 276.5 1364.7 277.2 1363.6 278.6 1363.8 280.5 1365.2 281.6L1380.8 294.7 1383.4 317.6 1347.3 288.2C1346.5 287.6 1345.9 287.7 1344.6 287.8 1344 287.9 1343.4 288 1342.8 288.7 1341.7 290.1 1342 292.6 1343.4 293.8L1384.5 327.1 1386.1 341.8 1360.6 360.7 1346.4 355.3 1327.3 305.2C1326.5 304 1325.1 302.9 1323.8 303.1 1323.2 303.1 1323.2 303.1 1323.2 303.8 1321.3 304 1320.3 306 1321.1 307.9L1338.2 351 1316.6 341.9 1309.3 322.7C1308.5 321.5 1307.2 321 1305.9 321.2 1305.9 321.2 1305.3 321.2 1305.3 321.2 1303.3 321.5 1302.3 323.5 1303.1 325.4L1308.5 338.3 1292.9 331.7C1292.2 331.1 1291.6 331.2 1290.9 331.2 1289.6 331.4 1288.4 332.2 1288.5 332.8 1287.5 334.8 1288.3 336.7 1289.7 337.8L1305.3 344.4 1292.9 349C1291.1 349.9 1290 351.9 1290.9 353.8 1291.7 355 1293.7 356 1294.9 355.3L1314.1 348 1335.1 357.2 1291.9 374.3C1290.1 375.1 1289.6 377.1 1289.9 379 1290.6 380.2 1292.7 381.3 1294.5 380.4ZM1367.6 394.7L1364.8 369.9 1364.4 366.1 1367.4 363.8 1387 349.4 1390.6 347.1 1394 348.6 1416.3 358.3 1419.7 359.9 1420.2 363.7 1423 388.5 1423.4 392.3 1420.4 394.6 1400.8 409 1397.8 411.3 1393.8 409.8 1371.5 400.1 1368.1 398.5 1367.6 394.7Z" fill="rgba(51, 121, 194, 0.58)"></path><path d="M594.1 530.8L605.1 522.1 606.7 530.4C606.8 531.3 607.7 532.1 609 532.1 610 531.7 610.8 530.7 610.4 529.7L608.7 519.2 617 512.1 620.3 533.8C620.8 534.9 621.8 535.7 622.7 535.6 624.1 535.2 624.9 534.3 624.4 533.2L620.6 509.2 633.5 498.6 634.5 517.8 647.8 504 650.6 520.4 631.9 536C631.5 535.9 631.4 536.3 631.2 536.6 631 537.4 631.1 538.3 631.7 538.9 632.3 539.6 633.5 539.6 634.6 539.2L651.4 525 652.9 535.8 644.8 542.6C644.3 542.8 644.2 543.2 644 543.6 643.9 543.9 644 544.8 644.6 545.5 645.2 546.1 646.5 546.2 647.1 545.6L653.8 540.4 656.3 554.1C656.2 555.4 657.4 555.8 658.6 555.9 659.5 555.8 660.3 554.8 660 553.4L657.8 539.8 665.7 542.7C666.8 543.1 668 542.3 668.3 541.6 668.7 540.4 668.2 539.4 667.1 539L657 535.2 655.5 524.4 675.7 532C676.8 532.4 677.9 531.9 678.3 530.8 678.6 530 678.2 528.6 677.1 528.2L654.6 519.8 651.8 503.4 668.7 511.8 663.6 493.7 679.3 499.6 683.3 523.2C683.6 524.7 684.7 525.1 685.6 525 686.5 524.9 687.3 523.9 687.3 522.6L683.4 501.1 693.6 504.9 695.6 515.5C695.5 516.7 696.5 517.5 697.9 517.2 698.8 517.1 699.6 516.1 699.3 514.7L698 506.6 711.2 511.5C712.3 511.9 713.3 511.4 713.7 510.3S713.7 508.2 712.6 507.7L699.4 502.8 705.7 497.5C706.9 496.7 706.9 495.4 706.3 494.7 705.5 493.6 704.2 493.5 703.4 494.5L695 501.1 684.8 497.4 701.9 483.7C702.7 482.7 702.8 481.4 702.2 480.8 701.3 479.6 700.1 479.6 699.3 480.5L680.7 495.8 665 489.9 680.8 479.6 662.5 474.9 675.4 464.4 697.9 472.8C699 473.2 700.2 472.4 700.5 471.6 700.9 470.5 700.4 469.5 699.3 469L678.7 461.3 687.3 454.3 697.4 458.1C698.6 458.5 699.6 458 700 456.9 700.3 456.2 700 454.8 698.8 454.3L691 451.4 701.5 442.5C702.7 441.7 702.8 440.4 701.8 439.6 701.2 439 700.1 438.6 699.3 439.5L688.3 448.2 686.7 440C686.6 439.1 685.6 438.3 684.7 438.4 683.9 438.5 683.2 439.1 683.1 439.4 682.9 439.8 682.8 440.2 683 440.7L684.6 451.1 676.4 458.3 673 436.5C672.6 435.5 671.6 434.7 670.7 434.8 669.8 434.9 669.2 435.5 668.9 436.3 668.7 436.6 668.7 436.6 669 437.2L672.8 461.2 659.8 471.8 658.9 452.6 645.6 466.4 642.8 450 661.5 434.3C662.1 433.7 662.6 432.6 661.7 431.4 661.1 430.8 659.8 430.7 658.8 431.2L642 445.4 640.5 434.6 648.6 427.8C649.6 427.3 649.6 426.1 648.8 424.9 648.2 424.2 646.9 424.2 645.9 424.7L639.6 430 637.1 416.2C637.1 415 636 414.5 634.7 414.5 634.2 414.7 633.6 415.3 633.4 415.7 633.3 416.1 633.1 416.5 633.4 417L635.5 430.6 627.7 427.7C626.5 427.2 625.4 428.1 625.1 428.8L625.1 428.8C624.7 429.9 625.1 431 626.3 431.4L636.4 435.2 637.9 446 617.7 438.4C616.5 438 615.5 438.5 615.1 439.6S615.1 441.7 616.2 442.2L638.7 450.6 641.5 467 624.6 458.6 629.8 476.7 614.1 470.8 610.1 447.1C609.8 445.7 608.7 445.3 607.8 445.4 606.9 445.5 606.1 446.5 606 447.7L609.6 469.1 599.8 465.5 597.8 454.9C597.9 453.6 596.9 452.8 595.5 453.2 594.6 453.3 593.8 454.2 593.7 455.5L595.3 463.8 582.2 458.9C581.1 458.5 580.1 458.9 579.6 460.1S579.7 462.2 580.8 462.6L593.9 467.5 587.6 472.9C587.1 473.1 587 473.5 586.9 473.9 586.6 474.6 586.8 475.1 587 475.6 587.9 476.8 589.1 476.9 589.9 475.9L598.4 469.2 608.5 473 591.4 486.7C591.3 487.1 591.2 487.4 591 487.8 590.7 488.6 591 489.1 591.2 489.6 592.1 490.8 593.3 490.8 594.1 489.8L612.6 474.6 628.4 480.5 612.6 490.8 630.9 495.5 617.9 506 595.5 497.6C594.3 497.2 593.2 498 592.9 498.8 592.5 499.9 592.9 500.9 594.1 501.3L614.3 508.9 606.1 516.1 595.9 512.3C594.8 511.9 593.8 512.3 593.4 513.5S593.4 515.6 594.5 516L602.4 519 591.8 527.8C591.3 528.1 591.2 528.5 591 528.8 590.9 529.2 591 530.1 591.6 530.7 592.2 531.4 593.3 531.8 594.1 530.8ZM622.1 489.2L635.1 480.8 630.8 466 644.9 473 655.4 462 656.5 477.3 671.3 481.2 658.3 489.5 662.6 504.4 648.9 497.5 638 508.4 637.3 493.2 622.1 489.2Z" fill="rgba(51, 121, 194, 0.58)"></path><path d="M67.9 403.5L84.4 424.2 83.7 431.5 68.8 438.1 62.7 433.8 58.9 407.5C58.7 407.2 58.7 407.2 58.6 406.9 58.3 406.3 57.8 405.9 56.8 406 55.9 406.4 55.4 406.9 55.5 407.9L59 430.9 49.7 424.1 48.1 414C48.1 414 47.9 413.7 47.9 413.7 47.7 413.1 47.1 412.7 46.1 412.7 45.4 412.7 44.8 413.7 44.9 414.7L45.7 421.3 38.9 416.3C38.4 415.8 37.4 415.9 36.6 416.6S36.4 418.4 37.1 419.2L43.7 423.9 37.2 425.1C36.2 425.2 35.6 426.1 35.7 427.1 35.9 427.7 36.6 428.5 37.6 428.4L47.7 426.7 57.1 433.8 34.2 437.2C33.2 437.3 32.5 438.3 32.5 439 32.9 439.9 33.6 440.6 34.6 440.5L60.7 436.4 66.9 441 65.2 456.8 58.1 459.9 33.4 450.5C32.5 450.2 31.7 450.6 31.3 451.4S31.4 453.1 32.2 453.5L54 461.7 43.2 466.5 33.9 462.9C33.1 462.5 32.2 462.9 31.6 463.9S31.6 465.6 32.5 465.9L39.1 468.3 31.2 471.8C30.3 472.1 30.1 473.3 30.5 474.2 30.9 475 31.7 475.4 32.6 475L40.5 471.5 38 477.8C37.4 478.8 37.8 479.7 39 479.9 39.8 480.2 40.7 479.8 41 479L44.6 469.7 55.4 464.9 46.8 486.6C46.5 487.4 47 488.6 47.8 488.9S49.5 488.9 49.9 488L59.6 463.1 66.6 460 79.6 469.7 78.6 477.1 57.9 493.6C57.2 494.2 57.2 495.3 57.6 496.1 58.3 496.9 59.3 496.8 60.2 496.4L78.3 481.8 77 493.2 68.9 499.6C68.2 500.2 68.3 501.2 68.7 502.1 69.2 502.6 70.3 502.8 71.1 502.1L76.3 498.1 75.5 506.5C75.4 507.2 76.1 507.9 77 508.3 78 508.2 78.7 507.5 78.7 506.8L79.6 498.4 84.1 503.7C84.6 504.2 85.7 504.4 86.2 503.8 87.1 503.5 87.1 502.7 86.7 501.9 86.7 501.9 86.6 501.6 86.6 501.6L80.3 493.5 81.5 482.1 96.1 500.2C96.8 500.9 97.6 501.3 98.4 500.6 99.1 499.9 99.2 499.2 98.9 498.6 98.8 498.3 98.8 498.3 98.8 498.3L81.9 477.4 82.9 470 97.8 463.4 103.6 467.9 107.9 494.3C107.8 495 108.8 495.6 109.5 495.7 110.5 495.6 111.2 494.6 111.1 493.6L107.6 470.7 116.9 477.4 118.5 487.5C118.6 488.5 119.3 489.3 120.2 488.9 121.2 488.8 121.8 487.8 121.8 487.1L120.6 480.3 127.4 485.4C128.2 485.7 129.2 485.6 130 484.9 130.1 484.5 130.2 483.8 129.9 483.2 129.8 482.9 129.8 482.9 129.4 482.8L122.6 477.7 129.4 476.5C130.4 476.4 130.7 475.5 130.8 474.8 130.6 474.5 130.6 474.5 130.5 474.2 130.2 473.6 129.7 473.2 129 473.1L118.9 474.8 109.6 468 132.6 464.6C133.4 464.2 134.2 463.5 133.8 462.6 134 462.2 134 462.2 133.8 461.9 133.6 461.3 132.7 461 132 461L105.6 465.3 99.8 460.8 101.4 444.7 108.2 441.7 133.1 451.4C133.9 451.8 135.1 451.2 135.4 450.4S135.2 448.4 134.4 448L112.6 439.8 123.1 435.2 132.7 438.7C133.5 439 134.4 438.6 134.7 437.8 135.1 436.9 134.7 436 133.8 435.7L127.5 433.2 135.4 429.8C136 429.5 136.6 428.5 136.2 427.7 135.9 426.8 134.6 426.3 134 426.5L126.1 430 128.6 423.7C128.7 423.3 128.9 422.8 128.8 422.6 128.5 422 128.1 421.8 127.7 421.6 126.8 421.3 125.9 421.7 125.6 422.5L121.7 431.9 111.2 436.6 119.8 414.9C120 414.5 119.8 414.2 119.6 413.6 119.5 413.4 119.3 413.1 118.9 412.9 118.1 412.6 116.9 413.1 116.6 413.9L106.8 438.5 100 441.5 87.2 432.1 87.7 424.5 108.7 408C109.2 407.4 109.5 406.6 109.2 406 109.1 405.7 109.1 405.7 108.8 405.8 108.4 404.9 107.3 404.7 106.5 405.4L88.5 420 89.6 408.3 97.7 402C98.1 401.4 98.2 400.7 97.9 400.1 97.9 400.1 97.8 399.8 97.8 399.8 97.4 398.9 96.3 398.7 95.5 399.4L90.1 403.9 91 395.5C91.1 395.1 91 394.8 90.9 394.5 90.6 393.9 90.1 393.4 89.8 393.6 88.6 393.4 87.9 394 87.6 394.9L86.7 403.3 82.7 398.1C82 397.3 80.9 397.1 80.1 397.8 79.7 398.4 79.5 399.5 80 399.9L86.3 408 85.1 419.4 70.5 401.3C69.8 400.6 68.8 400.7 67.9 401.1 67.5 401.6 67.3 402.8 67.9 403.5ZM72 440.5L83.4 435.5 85.2 434.7 86.7 435.8 96.5 443 98.2 444.4 97.9 446.3 96.6 458.4 96.4 460.2 94.6 461 83.2 466 81.4 466.8 79.9 465.7 70.1 458.5 68.6 457.4 68.7 455.3 70 443.2 70.2 441.3 72 440.5Z" fill="rgba(51, 121, 194, 0.58)"></path><path d="M1163.4 171.4L1157.4 140.1 1164.1 130.6 1166.1 141.1C1166 142.3 1167.2 142.8 1168.4 142.9 1169.2 142.6 1170.1 141.4 1169.8 140.6L1167.3 126 1173.6 116.4 1178.4 126.8 1173.3 140.9C1173.3 140.9 1173.3 141.3 1173.3 141.3 1173.3 142.1 1174 143 1174.8 143.4 1176 143.5 1176.8 143.2 1177.3 142L1180.9 131.8 1185.7 142.2 1175.4 172.3C1175.4 172.3 1174.9 172.7 1174.9 172.7 1174.9 173.5 1175.6 174.4 1176.4 174.8 1177.5 175.3 1178.8 174.6 1178.9 173.4L1188.1 147.2 1194.4 159.8 1190.3 171.5C1190.3 171.5 1190.3 171.5 1190.2 171.9 1190.2 172.7 1190.5 173.5 1191.3 174 1192.5 174.1 1193.7 173.7 1194.2 172.6L1196.8 164.8 1201.3 173.9C1201.6 175.2 1202.8 175.2 1203.6 174.9 1204.9 174.6 1205.4 173.4 1204.6 172.2L1200.5 163 1207.9 166C1209.1 166.1 1210.4 165.8 1210.4 164.6 1210.9 163.4 1210.6 162.6 1209.4 162.1L1197.7 158 1191.8 145.5 1218.4 154.8C1219.2 155.2 1220.4 154.5 1220.9 153.4 1221 152.6 1220.7 151.3 1219.5 150.9L1189.4 140.5 1184.6 130.1 1194.8 133.7C1195.9 134.2 1196.8 133.5 1197.3 132.3 1197.7 131.5 1197 130.3 1196.3 129.8L1182.2 125.1 1177 114.7 1188.5 115.6 1198.1 126.7C1198.8 127.6 1200 127.7 1200.9 127 1201.7 126.6 1201.8 125 1201.1 124.2L1194.1 116 1205.7 116.9 1226.3 141.3C1227 142.2 1228.2 142.3 1229.1 141.6 1229.9 140.8 1230 139.6 1229.3 138.8L1211.3 117.3 1224.8 118.4 1232.9 127.8C1233.7 128.7 1234.9 128.8 1235.7 128 1236.6 127.3 1236.7 126.1 1235.9 125.2L1230.8 118.8 1240.8 119.6C1242 119.7 1242.8 118.9 1242.9 117.7 1243 116.5 1242.3 115.7 1241.1 115.6L1231.1 114.8 1237.1 109.7C1238 108.9 1238.1 107.7 1237.3 106.9S1235.4 105.9 1234.5 106.7L1225.5 114.4 1211.6 113.3 1232.6 95.3C1233.5 94.6 1233.6 93.4 1232.8 92.5 1232.1 91.6 1230.9 91.5 1230 92.3L1206 112.9 1194.4 112 1202.6 105C1203.4 104.3 1203.5 103.1 1202.8 102.2 1202 101.4 1200.9 101.3 1200 102L1188.8 111.6 1177.7 110.7 1184 101.6 1198.6 98.7C1199.5 98.4 1200.4 97.2 1200 96.4 1199.7 95.2 1198.9 94.7 1197.8 94.6L1187.2 96.6 1193.5 87.5 1224.8 81.5C1226.1 81.1 1226.5 80.4 1226.6 79.2 1226.3 78 1225.1 77.5 1224.3 77.4L1196.7 82.5 1204.8 71.1 1216.6 68.8C1217.8 68.9 1218.3 67.7 1218.4 66.5 1218 65.7 1216.9 64.8 1215.7 65.1L1207.9 66.5 1213.4 58.1C1214.2 57.4 1213.9 56.1 1212.8 55.3 1212 54.8 1210.8 55.1 1210.3 55.9L1204.5 64.3 1203.1 56.1C1202.8 54.9 1201.6 54.4 1200.8 54.7 1199.6 54.7 1199.1 55.4 1199.1 56.2 1199.1 56.6 1199.1 56.6 1199 57L1201.3 68.8 1193.2 80.2 1188.1 53C1188.2 51.8 1187 51.3 1185.8 51.2 1185 51.5 1184.5 52.3 1184.5 53.1 1184.5 53.5 1184.5 53.5 1184.5 53.5L1190 85.2 1183.7 94.4 1181.7 83.8C1181.4 82.5 1180.7 82.1 1179.5 82 1178.6 82.3 1177.8 83.1 1177.7 83.9 1177.7 84.3 1177.7 84.3 1177.7 84.7L1180.5 99.3 1174.2 108.5 1169.4 98.5 1174.1 84.4C1174.6 83.2 1173.8 82 1173.1 81.5 1171.9 81.4 1170.7 81.7 1170.6 82.9L1167 93.1 1161.7 83 1172.5 52.6C1172.9 51.8 1172.2 50.5 1171.5 50.1 1170.3 50 1169.1 50.3 1168.6 51.5L1159.3 77.6 1153.5 65.2 1157.5 53.8C1158 52.7 1157.3 51.4 1156.1 51.3 1155.4 50.9 1154.1 51.2 1153.7 52.3L1151 60.2 1146.5 51C1146.2 50.2 1145 49.7 1143.8 50 1143.4 50.3 1142.9 51.1 1142.9 51.9 1142.9 51.9 1142.8 52.3 1142.8 52.7L1147.3 61.9 1139.5 59.3C1138.7 58.8 1137.5 59.5 1137 60.3 1137 60.7 1137 60.7 1137 60.7 1136.9 61.9 1137.6 62.7 1138.4 62.8L1149.7 66.9 1156 79.4 1129.4 70.1C1128.2 70 1127.4 70.4 1126.9 71.5 1126.9 71.5 1126.9 71.9 1126.9 71.9 1126.8 72.7 1127.2 73.6 1128.3 74.1L1158.4 84.8 1163.2 94.8 1153.1 91.2C1151.9 91.1 1150.7 91.4 1150.6 92.6 1150.2 92.6 1150.1 93 1150.1 93 1150.1 93.8 1150.8 94.6 1151.6 95.1L1165.7 99.8 1170.5 110.2 1159.3 109.3 1149.7 98.2C1149 97.3 1147.4 97.2 1146.6 97.9 1146.1 98.7 1146 99.9 1146.3 100.7L1153.7 108.9 1142.2 108 1121.5 84C1120.8 83.1 1119.6 83 1118.8 83.8 1117.9 84.5 1117.8 85.7 1118.5 86.6L1136.6 107.6 1122.6 106.5 1114.9 97.5C1114.2 96.6 1113 96.6 1112.1 97.3S1111.1 99.2 1111.9 100.1L1117 106.1 1107.1 105.3C1105.9 105.2 1105 106 1104.9 107.2 1104.8 108.4 1105.6 109.2 1106.8 109.3L1116.7 110.1 1110.7 115.6C1110.3 116 1109.8 116.4 1109.8 116.8 1109.8 117.2 1110.1 118 1110.5 118.4 1111.2 119.3 1112.4 119.4 1113.3 118.6L1122.3 110.5 1136.3 111.6 1115.2 130C1114.8 130.4 1114.3 130.8 1114.3 131.2 1114.3 131.6 1114.6 132.4 1115 132.8 1115.7 133.7 1116.9 133.8 1117.8 133L1141.9 112 1153.4 112.9 1144.9 119.9C1144.4 120.2 1144.4 121 1144.3 121.4 1144.3 121.8 1144.3 122.2 1144.7 122.7 1145.4 123.5 1147 123.6 1147.4 122.9L1159 113.3 1170.2 114.2 1163.8 123.7 1149.2 126.2C1148.4 126.5 1147.5 127.3 1147.4 128.1 1147.4 128.5 1147.4 128.5 1147.8 128.5 1147.7 129.7 1148.9 130.6 1150.1 130.3L1160.7 128.3 1154.3 137.8 1122.6 143.4C1121.8 143.8 1121.3 144.5 1121.3 145.3 1121.2 145.7 1121.2 145.7 1121.2 145.7 1121.5 147 1122.3 147.8 1123.5 147.5L1151.2 142.4 1143.1 153.8 1131.3 156.1C1130 156.4 1129.6 157.2 1129.5 158 1129.5 158 1129.5 158.4 1129.5 158.4 1129.8 159.6 1131 160.1 1131.8 160.2L1139.9 158.4 1134.1 166.8C1134 167.2 1134 167.6 1134 168 1133.9 168.4 1134.3 169.2 1134.6 169.6 1135.8 170.1 1137 170.2 1137.5 169L1143.3 160.7 1144.7 168.8C1145 170 1146.2 170.5 1147 170.6 1148.2 170.3 1148.7 169.1 1148.8 167.9L1146.5 156.1 1154.2 144.6 1159.3 171.9C1159.6 173.1 1160.8 174 1161.6 173.7 1162.8 173.4 1163.7 172.7 1163.4 171.4Z" fill="rgba(51, 121, 194, 0.58)"></path></g><defs><mask id="SvgjsMask1000"><rect width="1440" height="560" fill="#ffffff"></rect></mask><filter id="SvgjsFilter1001"><feGaussianBlur stdDeviation="1"></feGaussianBlur></filter></defs></svg>